%TF.GenerationSoftware,KiCad,Pcbnew,8.0.6*%
%TF.CreationDate,2024-10-24T14:04:09-05:00*%
%TF.ProjectId,FanPWMtoRotorLock,46616e50-574d-4746-9f52-6f746f724c6f,rev?*%
%TF.SameCoordinates,Original*%
%TF.FileFunction,Copper,L1,Top*%
%TF.FilePolarity,Positive*%
%FSLAX46Y46*%
G04 Gerber Fmt 4.6, Leading zero omitted, Abs format (unit mm)*
G04 Created by KiCad (PCBNEW 8.0.6) date 2024-10-24 14:04:09*
%MOMM*%
%LPD*%
G01*
G04 APERTURE LIST*
G04 Aperture macros list*
%AMRoundRect*
0 Rectangle with rounded corners*
0 $1 Rounding radius*
0 $2 $3 $4 $5 $6 $7 $8 $9 X,Y pos of 4 corners*
0 Add a 4 corners polygon primitive as box body*
4,1,4,$2,$3,$4,$5,$6,$7,$8,$9,$2,$3,0*
0 Add four circle primitives for the rounded corners*
1,1,$1+$1,$2,$3*
1,1,$1+$1,$4,$5*
1,1,$1+$1,$6,$7*
1,1,$1+$1,$8,$9*
0 Add four rect primitives between the rounded corners*
20,1,$1+$1,$2,$3,$4,$5,0*
20,1,$1+$1,$4,$5,$6,$7,0*
20,1,$1+$1,$6,$7,$8,$9,0*
20,1,$1+$1,$8,$9,$2,$3,0*%
G04 Aperture macros list end*
%TA.AperFunction,ComponentPad*%
%ADD10RoundRect,0.250000X-0.350000X-0.625000X0.350000X-0.625000X0.350000X0.625000X-0.350000X0.625000X0*%
%TD*%
%TA.AperFunction,ComponentPad*%
%ADD11O,1.200000X1.750000*%
%TD*%
%TA.AperFunction,SMDPad,CuDef*%
%ADD12RoundRect,0.250000X0.450000X-0.350000X0.450000X0.350000X-0.450000X0.350000X-0.450000X-0.350000X0*%
%TD*%
%TA.AperFunction,SMDPad,CuDef*%
%ADD13R,1.300000X0.600000*%
%TD*%
%TA.AperFunction,SMDPad,CuDef*%
%ADD14RoundRect,0.250000X-0.475000X0.337500X-0.475000X-0.337500X0.475000X-0.337500X0.475000X0.337500X0*%
%TD*%
%TA.AperFunction,ComponentPad*%
%ADD15C,2.020000*%
%TD*%
%TA.AperFunction,ViaPad*%
%ADD16C,0.600000*%
%TD*%
%TA.AperFunction,Conductor*%
%ADD17C,0.200000*%
%TD*%
G04 APERTURE END LIST*
D10*
%TO.P,J2,1*%
%TO.N,Net-(Q2-E)*%
X119033475Y-86593723D03*
D11*
%TO.P,J2,2*%
%TO.N,Net-(U1-R)*%
X121033475Y-86593723D03*
%TO.P,J2,3*%
%TO.N,Net-(Q2-C)*%
X123033475Y-86593723D03*
%TD*%
D12*
%TO.P,R4,1*%
%TO.N,Net-(U1-DIS)*%
X129650000Y-79450000D03*
%TO.P,R4,2*%
%TO.N,Net-(Q3-E)*%
X129650000Y-77450000D03*
%TD*%
D13*
%TO.P,Q2,1,B*%
%TO.N,Net-(Q2-B)*%
X128700000Y-84400000D03*
%TO.P,Q2,2,E*%
%TO.N,Net-(Q2-E)*%
X128700000Y-82500000D03*
%TO.P,Q2,3,C*%
%TO.N,Net-(Q2-C)*%
X126600000Y-83450000D03*
%TD*%
D12*
%TO.P,R3,1*%
%TO.N,Net-(U1-R)*%
X126700000Y-89100000D03*
%TO.P,R3,2*%
%TO.N,Net-(U1-DIS)*%
X126700000Y-87100000D03*
%TD*%
D14*
%TO.P,C1,1*%
%TO.N,Net-(Q3-E)*%
X132200000Y-77412500D03*
%TO.P,C1,2*%
%TO.N,Net-(Q2-E)*%
X132200000Y-79487500D03*
%TD*%
D15*
%TO.P,J1,1*%
%TO.N,Net-(Q2-E)*%
X118500000Y-80000000D03*
%TO.P,J1,2*%
%TO.N,Net-(U1-R)*%
X121040000Y-80000000D03*
%TO.P,J1,3*%
%TO.N,Net-(J1-Pad3)*%
X123580000Y-80000000D03*
%TD*%
D13*
%TO.P,Q3,1,B*%
%TO.N,Net-(Q3-B)*%
X130450000Y-82500000D03*
%TO.P,Q3,2,C*%
%TO.N,Net-(Q2-E)*%
X130450000Y-84400000D03*
%TO.P,Q3,3,E*%
%TO.N,Net-(Q3-E)*%
X132550000Y-83450000D03*
%TD*%
D12*
%TO.P,R2,1*%
%TO.N,Net-(J1-Pad3)*%
X126800000Y-79450000D03*
%TO.P,R2,2*%
%TO.N,Net-(Q3-B)*%
X126800000Y-77450000D03*
%TD*%
%TO.P,R5,1*%
%TO.N,Net-(U1-Q)*%
X132400000Y-89100000D03*
%TO.P,R5,2*%
%TO.N,Net-(Q2-B)*%
X132400000Y-87100000D03*
%TD*%
%TO.P,R6,1*%
%TO.N,Net-(U1-R)*%
X129600000Y-89100000D03*
%TO.P,R6,2*%
%TO.N,Net-(Q2-C)*%
X129600000Y-87100000D03*
%TD*%
D16*
%TO.N,Net-(U1-R)*%
X128250000Y-87950000D03*
%TO.N,Net-(U1-DIS)*%
X128150735Y-86499265D03*
X129650000Y-80800000D03*
%TO.N,Net-(U1-Q)*%
X133400000Y-85900000D03*
%TO.N,Net-(Q2-E)*%
X130900000Y-79900000D03*
%TO.N,Net-(Q3-B)*%
X130350000Y-81450000D03*
%TD*%
D17*
%TO.N,Net-(J1-Pad3)*%
X126250000Y-80000000D02*
X126800000Y-79450000D01*
X123580000Y-80000000D02*
X126250000Y-80000000D01*
%TO.N,Net-(U1-R)*%
X128450000Y-87950000D02*
X129600000Y-89100000D01*
X126700000Y-89100000D02*
X129600000Y-89100000D01*
X128250000Y-87950000D02*
X128450000Y-87950000D01*
X123539752Y-89100000D02*
X121033475Y-86593723D01*
X126700000Y-89100000D02*
X123539752Y-89100000D01*
X129600000Y-89100000D02*
X129900000Y-89100000D01*
%TO.N,Net-(U1-DIS)*%
X126700000Y-87100000D02*
X127550000Y-87100000D01*
X127550000Y-87100000D02*
X128150735Y-86499265D01*
X129650000Y-79450000D02*
X129650000Y-80800000D01*
%TO.N,Net-(U1-Q)*%
X133400000Y-88100000D02*
X133400000Y-85900000D01*
X132400000Y-89100000D02*
X133400000Y-88100000D01*
%TO.N,Net-(Q2-E)*%
X130450000Y-84250000D02*
X130450000Y-84400000D01*
X118500000Y-80000000D02*
X121000000Y-82500000D01*
X131600000Y-80087500D02*
X131600000Y-83250000D01*
X131787500Y-79900000D02*
X132200000Y-79487500D01*
X130900000Y-79900000D02*
X131787500Y-79900000D01*
X121000000Y-82500000D02*
X128700000Y-82500000D01*
X128700000Y-82500000D02*
X130450000Y-84250000D01*
X119033475Y-80533475D02*
X118500000Y-80000000D01*
X119033475Y-86593723D02*
X119033475Y-80533475D01*
X132200000Y-79487500D02*
X131600000Y-80087500D01*
X131600000Y-83250000D02*
X130450000Y-84400000D01*
%TO.N,Net-(Q3-E)*%
X132200000Y-77412500D02*
X133225000Y-78437500D01*
X132162500Y-77450000D02*
X132200000Y-77412500D01*
X133225000Y-78437500D02*
X133225000Y-82775000D01*
X129650000Y-77450000D02*
X132162500Y-77450000D01*
X133225000Y-82775000D02*
X132550000Y-83450000D01*
%TO.N,Net-(Q2-B)*%
X132400000Y-87100000D02*
X132300000Y-87000000D01*
X132300000Y-87000000D02*
X131300000Y-87000000D01*
X131300000Y-87000000D02*
X128700000Y-84400000D01*
%TO.N,Net-(Q2-C)*%
X123456277Y-86593723D02*
X126600000Y-83450000D01*
X126600000Y-83450000D02*
X126600000Y-84100000D01*
X123033475Y-86593723D02*
X123456277Y-86593723D01*
X126600000Y-84100000D02*
X129600000Y-87100000D01*
%TO.N,Net-(Q3-B)*%
X130350000Y-81450000D02*
X130350000Y-82400000D01*
X128650000Y-80700000D02*
X130450000Y-82500000D01*
X130350000Y-82400000D02*
X130450000Y-82500000D01*
X128650000Y-79300000D02*
X128650000Y-80700000D01*
X126800000Y-77450000D02*
X128650000Y-79300000D01*
%TD*%
M02*
