%TF.GenerationSoftware,KiCad,Pcbnew,8.0.6*%
%TF.CreationDate,2024-10-24T14:04:09-05:00*%
%TF.ProjectId,FanPWMtoRotorLock,46616e50-574d-4746-9f52-6f746f724c6f,rev?*%
%TF.SameCoordinates,Original*%
%TF.FileFunction,Legend,Top*%
%TF.FilePolarity,Positive*%
%FSLAX46Y46*%
G04 Gerber Fmt 4.6, Leading zero omitted, Abs format (unit mm)*
G04 Created by KiCad (PCBNEW 8.0.6) date 2024-10-24 14:04:09*
%MOMM*%
%LPD*%
G01*
G04 APERTURE LIST*
%ADD10C,0.120000*%
%ADD11C,0.100000*%
G04 APERTURE END LIST*
D10*
%TO.C,J2*%
X116673475Y-84483723D02*
X116673475Y-85733723D01*
X116973475Y-84783723D02*
X116973475Y-89503723D01*
X116973475Y-86093723D02*
X117583475Y-86093723D01*
X116973475Y-87393723D02*
X117583475Y-87393723D01*
X116973475Y-89503723D02*
X125093475Y-89503723D01*
X117583475Y-85393723D02*
X117583475Y-88893723D01*
X117583475Y-88893723D02*
X124483475Y-88893723D01*
X117923475Y-84483723D02*
X116673475Y-84483723D01*
X118433475Y-84583723D02*
X118433475Y-84783723D01*
X118733475Y-84583723D02*
X118433475Y-84583723D01*
X118733475Y-84683723D02*
X118433475Y-84683723D01*
X118733475Y-84783723D02*
X118733475Y-84583723D01*
X119533475Y-84783723D02*
X119533475Y-85393723D01*
X119533475Y-85393723D02*
X117583475Y-85393723D01*
X119933475Y-88393723D02*
X120133475Y-88393723D01*
X119933475Y-88893723D02*
X119933475Y-88393723D01*
X120033475Y-88893723D02*
X120033475Y-88393723D01*
X120133475Y-88393723D02*
X120133475Y-88893723D01*
X121933475Y-88393723D02*
X122133475Y-88393723D01*
X121933475Y-88893723D02*
X121933475Y-88393723D01*
X122033475Y-88893723D02*
X122033475Y-88393723D01*
X122133475Y-88393723D02*
X122133475Y-88893723D01*
X122533475Y-85393723D02*
X122533475Y-84783723D01*
X124483475Y-85393723D02*
X122533475Y-85393723D01*
X124483475Y-88893723D02*
X124483475Y-85393723D01*
X125093475Y-84783723D02*
X116973475Y-84783723D01*
X125093475Y-86093723D02*
X124483475Y-86093723D01*
X125093475Y-87393723D02*
X124483475Y-87393723D01*
X125093475Y-89503723D02*
X125093475Y-84783723D01*
%TO.C,R4*%
X128915000Y-78677064D02*
X128915000Y-78222936D01*
X130385000Y-78677064D02*
X130385000Y-78222936D01*
D11*
%TO.C,Q2*%
X126825000Y-81800000D02*
X127275000Y-81800000D01*
X126825000Y-82025000D02*
X126825000Y-82150000D01*
X126825000Y-82100000D02*
X126825000Y-81800000D01*
X126825000Y-85100000D02*
X126825000Y-84800000D01*
X127200000Y-85100000D02*
X126825000Y-85100000D01*
X127825000Y-85100000D02*
X128100000Y-85100000D01*
X128000000Y-81800000D02*
X128475000Y-81800000D01*
X128100000Y-85100000D02*
X128475000Y-84825000D01*
X128475000Y-81800000D02*
X128475000Y-82150000D01*
X128475000Y-84775000D02*
X129250000Y-84775000D01*
X128475000Y-84825000D02*
X128475000Y-84775000D01*
D10*
%TO.C,R3*%
X125965000Y-88327064D02*
X125965000Y-87872936D01*
X127435000Y-88327064D02*
X127435000Y-87872936D01*
%TO.C,C1*%
X131465000Y-78188748D02*
X131465000Y-78711252D01*
X132935000Y-78188748D02*
X132935000Y-78711252D01*
D11*
%TO.C,J1*%
X117200000Y-76700000D02*
X117200000Y-77200000D01*
X117200000Y-76700000D02*
X117700000Y-76700000D01*
X117200000Y-83300000D02*
X117200000Y-82800000D01*
X117200000Y-83300000D02*
X117700000Y-83300000D01*
X124900000Y-76700000D02*
X124400000Y-76700000D01*
X124900000Y-76700000D02*
X124900000Y-77200000D01*
X124900000Y-83300000D02*
X124400000Y-83300000D01*
X124900000Y-83300000D02*
X124900000Y-82800000D01*
%TO.C,Q3*%
X130675000Y-82075000D02*
X130675000Y-82125000D01*
X130675000Y-82125000D02*
X129900000Y-82125000D01*
X130675000Y-85100000D02*
X130675000Y-84750000D01*
X131050000Y-81800000D02*
X130675000Y-82075000D01*
X131150000Y-85100000D02*
X130675000Y-85100000D01*
X131325000Y-81800000D02*
X131050000Y-81800000D01*
X131950000Y-81800000D02*
X132325000Y-81800000D01*
X132325000Y-81800000D02*
X132325000Y-82100000D01*
X132325000Y-84800000D02*
X132325000Y-85100000D01*
X132325000Y-84875000D02*
X132325000Y-84750000D01*
X132325000Y-85100000D02*
X131875000Y-85100000D01*
D10*
%TO.C,R2*%
X126065000Y-78677064D02*
X126065000Y-78222936D01*
X127535000Y-78677064D02*
X127535000Y-78222936D01*
%TO.C,R5*%
X131665000Y-88327064D02*
X131665000Y-87872936D01*
X133135000Y-88327064D02*
X133135000Y-87872936D01*
%TO.C,R6*%
X128865000Y-88327064D02*
X128865000Y-87872936D01*
X130335000Y-88327064D02*
X130335000Y-87872936D01*
%TD*%
M02*
