%TF.GenerationSoftware,KiCad,Pcbnew,8.0.6*%
%TF.CreationDate,2024-10-24T14:04:47-05:00*%
%TF.ProjectId,FanPWMtoRotorLock,46616e50-574d-4746-9f52-6f746f724c6f,rev?*%
%TF.SameCoordinates,Original*%
%TF.FileFunction,Copper,L2,Bot*%
%TF.FilePolarity,Positive*%
%FSLAX46Y46*%
G04 Gerber Fmt 4.6, Leading zero omitted, Abs format (unit mm)*
G04 Created by KiCad (PCBNEW 8.0.6) date 2024-10-24 14:04:47*
%MOMM*%
%LPD*%
G01*
G04 APERTURE LIST*
G04 Aperture macros list*
%AMRoundRect*
0 Rectangle with rounded corners*
0 $1 Rounding radius*
0 $2 $3 $4 $5 $6 $7 $8 $9 X,Y pos of 4 corners*
0 Add a 4 corners polygon primitive as box body*
4,1,4,$2,$3,$4,$5,$6,$7,$8,$9,$2,$3,0*
0 Add four circle primitives for the rounded corners*
1,1,$1+$1,$2,$3*
1,1,$1+$1,$4,$5*
1,1,$1+$1,$6,$7*
1,1,$1+$1,$8,$9*
0 Add four rect primitives between the rounded corners*
20,1,$1+$1,$2,$3,$4,$5,0*
20,1,$1+$1,$4,$5,$6,$7,0*
20,1,$1+$1,$6,$7,$8,$9,0*
20,1,$1+$1,$8,$9,$2,$3,0*%
G04 Aperture macros list end*
%TA.AperFunction,ComponentPad*%
%ADD10RoundRect,0.250000X-0.350000X-0.625000X0.350000X-0.625000X0.350000X0.625000X-0.350000X0.625000X0*%
%TD*%
%TA.AperFunction,ComponentPad*%
%ADD11O,1.200000X1.750000*%
%TD*%
%TA.AperFunction,ComponentPad*%
%ADD12C,2.020000*%
%TD*%
%TA.AperFunction,SMDPad,CuDef*%
%ADD13RoundRect,0.150000X0.825000X0.150000X-0.825000X0.150000X-0.825000X-0.150000X0.825000X-0.150000X0*%
%TD*%
%TA.AperFunction,SMDPad,CuDef*%
%ADD14RoundRect,0.250000X-0.350000X-0.450000X0.350000X-0.450000X0.350000X0.450000X-0.350000X0.450000X0*%
%TD*%
%TA.AperFunction,ViaPad*%
%ADD15C,0.600000*%
%TD*%
%TA.AperFunction,Conductor*%
%ADD16C,0.200000*%
%TD*%
G04 APERTURE END LIST*
D10*
%TO.P,J2,1*%
%TO.N,Net-(Q2-E)*%
X119033475Y-86593723D03*
D11*
%TO.P,J2,2*%
%TO.N,Net-(U1-R)*%
X121033475Y-86593723D03*
%TO.P,J2,3*%
%TO.N,Net-(Q2-C)*%
X123033475Y-86593723D03*
%TD*%
D12*
%TO.P,J1,1*%
%TO.N,Net-(Q2-E)*%
X118500000Y-80000000D03*
%TO.P,J1,2*%
%TO.N,Net-(U1-R)*%
X121040000Y-80000000D03*
%TO.P,J1,3*%
%TO.N,Net-(J1-Pad3)*%
X123580000Y-80000000D03*
%TD*%
D13*
%TO.P,U1,1,GND*%
%TO.N,Net-(Q2-E)*%
X132075000Y-81295000D03*
%TO.P,U1,2,TR*%
%TO.N,Net-(Q3-B)*%
X132075000Y-82565000D03*
%TO.P,U1,3,Q*%
%TO.N,Net-(U1-Q)*%
X132075000Y-83835000D03*
%TO.P,U1,4,R*%
%TO.N,Net-(U1-R)*%
X132075000Y-85105000D03*
%TO.P,U1,5,CV*%
%TO.N,unconnected-(U1-CV-Pad5)*%
X127125000Y-85105000D03*
%TO.P,U1,6,THR*%
%TO.N,Net-(U1-DIS)*%
X127125000Y-83835000D03*
%TO.P,U1,7,DIS*%
X127125000Y-82565000D03*
%TO.P,U1,8,VCC*%
%TO.N,Net-(U1-R)*%
X127125000Y-81295000D03*
%TD*%
D14*
%TO.P,R1,1*%
%TO.N,Net-(U1-R)*%
X121300000Y-82800000D03*
%TO.P,R1,2*%
%TO.N,Net-(J1-Pad3)*%
X123300000Y-82800000D03*
%TD*%
D15*
%TO.N,Net-(U1-R)*%
X128250000Y-87950000D03*
%TO.N,Net-(U1-DIS)*%
X128150735Y-86499265D03*
X129650000Y-80800000D03*
%TO.N,Net-(U1-Q)*%
X133400000Y-85900000D03*
%TO.N,Net-(Q2-E)*%
X130900000Y-79900000D03*
%TO.N,Net-(Q3-B)*%
X130350000Y-81450000D03*
%TD*%
D16*
%TO.N,Net-(J1-Pad3)*%
X123300000Y-82800000D02*
X123300000Y-80280000D01*
X123300000Y-80280000D02*
X123580000Y-80000000D01*
%TO.N,Net-(U1-R)*%
X131095000Y-85105000D02*
X128250000Y-87950000D01*
X121300000Y-82800000D02*
X121300000Y-84200000D01*
X123874448Y-84200000D02*
X121300000Y-84200000D01*
X132075000Y-85105000D02*
X131095000Y-85105000D01*
X126779448Y-81295000D02*
X123874448Y-84200000D01*
X121300000Y-80260000D02*
X121040000Y-80000000D01*
X121300000Y-84200000D02*
X121300000Y-86327198D01*
X121300000Y-82800000D02*
X121300000Y-80260000D01*
X121300000Y-86327198D02*
X121033475Y-86593723D01*
X127125000Y-81295000D02*
X126779448Y-81295000D01*
%TO.N,Net-(U1-DIS)*%
X127885000Y-82565000D02*
X127125000Y-82565000D01*
X129650000Y-80800000D02*
X127885000Y-82565000D01*
X127125000Y-83835000D02*
X127125000Y-82565000D01*
X128150735Y-86499265D02*
X128400000Y-86250000D01*
X128400000Y-86250000D02*
X128400000Y-84764448D01*
X127470552Y-83835000D02*
X127125000Y-83835000D01*
X128400000Y-84764448D02*
X127470552Y-83835000D01*
%TO.N,Net-(U1-Q)*%
X133400000Y-84185001D02*
X133049999Y-83835000D01*
X133049999Y-83835000D02*
X132075000Y-83835000D01*
X133400000Y-85900000D02*
X133400000Y-84185001D01*
%TO.N,Net-(Q2-E)*%
X132075000Y-81295000D02*
X132075000Y-81075000D01*
X132075000Y-81075000D02*
X130900000Y-79900000D01*
%TO.N,Net-(Q3-B)*%
X132075000Y-82565000D02*
X131465000Y-82565000D01*
X131465000Y-82565000D02*
X130350000Y-81450000D01*
%TD*%
M02*
