%TF.GenerationSoftware,KiCad,Pcbnew,8.0.6*%
%TF.CreationDate,2024-10-26T20:07:40-05:00*%
%TF.ProjectId,FanPWMtoRotorLock,46616e50-574d-4746-9f52-6f746f724c6f,rev?*%
%TF.SameCoordinates,Original*%
%TF.FileFunction,Copper,L1,Top*%
%TF.FilePolarity,Positive*%
%FSLAX46Y46*%
G04 Gerber Fmt 4.6, Leading zero omitted, Abs format (unit mm)*
G04 Created by KiCad (PCBNEW 8.0.6) date 2024-10-26 20:07:40*
%MOMM*%
%LPD*%
G01*
G04 APERTURE LIST*
G04 Aperture macros list*
%AMRoundRect*
0 Rectangle with rounded corners*
0 $1 Rounding radius*
0 $2 $3 $4 $5 $6 $7 $8 $9 X,Y pos of 4 corners*
0 Add a 4 corners polygon primitive as box body*
4,1,4,$2,$3,$4,$5,$6,$7,$8,$9,$2,$3,0*
0 Add four circle primitives for the rounded corners*
1,1,$1+$1,$2,$3*
1,1,$1+$1,$4,$5*
1,1,$1+$1,$6,$7*
1,1,$1+$1,$8,$9*
0 Add four rect primitives between the rounded corners*
20,1,$1+$1,$2,$3,$4,$5,0*
20,1,$1+$1,$4,$5,$6,$7,0*
20,1,$1+$1,$6,$7,$8,$9,0*
20,1,$1+$1,$8,$9,$2,$3,0*%
G04 Aperture macros list end*
%TA.AperFunction,SMDPad,CuDef*%
%ADD10R,0.600000X1.300000*%
%TD*%
%TA.AperFunction,SMDPad,CuDef*%
%ADD11R,1.300000X0.600000*%
%TD*%
%TA.AperFunction,ComponentPad*%
%ADD12RoundRect,0.250000X-0.350000X-0.625000X0.350000X-0.625000X0.350000X0.625000X-0.350000X0.625000X0*%
%TD*%
%TA.AperFunction,ComponentPad*%
%ADD13O,1.200000X1.750000*%
%TD*%
%TA.AperFunction,SMDPad,CuDef*%
%ADD14RoundRect,0.250000X-0.450000X0.350000X-0.450000X-0.350000X0.450000X-0.350000X0.450000X0.350000X0*%
%TD*%
%TA.AperFunction,SMDPad,CuDef*%
%ADD15RoundRect,0.250000X0.350000X0.450000X-0.350000X0.450000X-0.350000X-0.450000X0.350000X-0.450000X0*%
%TD*%
%TA.AperFunction,SMDPad,CuDef*%
%ADD16RoundRect,0.250000X-0.337500X-0.475000X0.337500X-0.475000X0.337500X0.475000X-0.337500X0.475000X0*%
%TD*%
%TA.AperFunction,ComponentPad*%
%ADD17C,2.020000*%
%TD*%
%TA.AperFunction,ViaPad*%
%ADD18C,0.600000*%
%TD*%
%TA.AperFunction,Conductor*%
%ADD19C,0.200000*%
%TD*%
G04 APERTURE END LIST*
D10*
%TO.P,Q3,1,B*%
%TO.N,Net-(Q3-B)*%
X125075000Y-86075000D03*
%TO.P,Q3,2,C*%
%TO.N,Net-(Q2-E)*%
X123175000Y-86075000D03*
%TO.P,Q3,3,E*%
%TO.N,Net-(Q3-E)*%
X124125000Y-88175000D03*
%TD*%
D11*
%TO.P,Q2,1,B*%
%TO.N,Net-(Q2-B)*%
X121025000Y-87925000D03*
%TO.P,Q2,2,E*%
%TO.N,Net-(Q2-E)*%
X121025000Y-86025000D03*
%TO.P,Q2,3,C*%
%TO.N,Net-(Q2-C)*%
X118925000Y-86975000D03*
%TD*%
D12*
%TO.P,J2,1*%
%TO.N,Net-(Q2-E)*%
X126100000Y-79925000D03*
D13*
%TO.P,J2,2*%
%TO.N,Net-(U1-R)*%
X128100000Y-79925000D03*
%TO.P,J2,3*%
%TO.N,Net-(Q2-C)*%
X130100000Y-79925000D03*
%TD*%
D14*
%TO.P,R4,1*%
%TO.N,Net-(U1-DIS)*%
X127100000Y-86150000D03*
%TO.P,R4,2*%
%TO.N,Net-(Q3-E)*%
X127100000Y-88150000D03*
%TD*%
D15*
%TO.P,R3,1*%
%TO.N,Net-(U1-R)*%
X131500000Y-88000000D03*
%TO.P,R3,2*%
%TO.N,Net-(U1-DIS)*%
X129500000Y-88000000D03*
%TD*%
D16*
%TO.P,C1,1*%
%TO.N,Net-(Q3-E)*%
X129462500Y-84500000D03*
%TO.P,C1,2*%
%TO.N,Net-(Q2-E)*%
X131537500Y-84500000D03*
%TD*%
D17*
%TO.P,J1,1*%
%TO.N,Net-(Q2-E)*%
X116775000Y-81125000D03*
%TO.P,J1,2*%
%TO.N,Net-(U1-R)*%
X119315000Y-81125000D03*
%TO.P,J1,3*%
%TO.N,Net-(J1-Pad3)*%
X121855000Y-81125000D03*
%TD*%
D14*
%TO.P,R5,1*%
%TO.N,Net-(U1-Q)*%
X116425000Y-85875000D03*
%TO.P,R5,2*%
%TO.N,Net-(Q2-B)*%
X116425000Y-87875000D03*
%TD*%
D18*
%TO.N,Net-(U1-DIS)*%
X128279500Y-87435400D03*
%TO.N,Net-(U1-Q)*%
X118378000Y-85875000D03*
%TO.N,Net-(Q3-B)*%
X125075000Y-87357600D03*
%TD*%
D19*
%TO.N,Net-(U1-R)*%
X130642200Y-81106800D02*
X130642200Y-87142200D01*
X131015500Y-79236800D02*
X131015500Y-80733500D01*
X130519400Y-78740700D02*
X131015500Y-79236800D01*
X128100000Y-79925000D02*
X129001700Y-79925000D01*
X129001700Y-79361400D02*
X129622400Y-78740700D01*
X131015500Y-80733500D02*
X130642200Y-81106800D01*
X130642200Y-87142200D02*
X131500000Y-88000000D01*
X129001700Y-79925000D02*
X129001700Y-79361400D01*
X129622400Y-78740700D02*
X130519400Y-78740700D01*
%TO.N,Net-(U1-DIS)*%
X128279500Y-87329500D02*
X127100000Y-86150000D01*
X129500000Y-88000000D02*
X128844100Y-88000000D01*
X128279500Y-87435400D02*
X128279500Y-87329500D01*
X128844100Y-88000000D02*
X128279500Y-87435400D01*
%TO.N,Net-(U1-Q)*%
X116425000Y-85875000D02*
X118378000Y-85875000D01*
%TO.N,Net-(Q2-E)*%
X127715900Y-78309100D02*
X130668400Y-78309100D01*
X123175000Y-86075000D02*
X123175000Y-82850000D01*
X126100000Y-79925000D02*
X127715900Y-78309100D01*
X122026700Y-86075000D02*
X123175000Y-86075000D01*
X130668400Y-78309100D02*
X131537500Y-79178200D01*
X121025000Y-86025000D02*
X121976700Y-86025000D01*
X121976700Y-86025000D02*
X122026700Y-86075000D01*
X123175000Y-82850000D02*
X126100000Y-79925000D01*
X116775000Y-81173300D02*
X121025000Y-85423300D01*
X121025000Y-86025000D02*
X121025000Y-85423300D01*
X116775000Y-81125000D02*
X116775000Y-81173300D01*
X131537500Y-79178200D02*
X131537500Y-84500000D01*
%TO.N,Net-(Q3-E)*%
X127130000Y-84500000D02*
X129462500Y-84500000D01*
X124125000Y-88175000D02*
X124726700Y-88175000D01*
X126063100Y-88015800D02*
X126063100Y-85566900D01*
X125903900Y-88175000D02*
X126063100Y-88015800D01*
X127100000Y-88150000D02*
X126197300Y-88150000D01*
X126197300Y-88150000D02*
X126063100Y-88015800D01*
X124726700Y-88175000D02*
X125903900Y-88175000D01*
X126063100Y-85566900D02*
X127130000Y-84500000D01*
%TO.N,Net-(Q2-B)*%
X120073300Y-87925000D02*
X120023300Y-87875000D01*
X120023300Y-87875000D02*
X116425000Y-87875000D01*
X121025000Y-87925000D02*
X120073300Y-87925000D01*
%TO.N,Net-(Q2-C)*%
X124386300Y-85323400D02*
X129784700Y-79925000D01*
X119876700Y-86975000D02*
X119960300Y-87058600D01*
X118925000Y-86975000D02*
X119876700Y-86975000D01*
X124386300Y-86280600D02*
X124386300Y-85323400D01*
X123608300Y-87058600D02*
X124386300Y-86280600D01*
X129784700Y-79925000D02*
X130100000Y-79925000D01*
X119960300Y-87058600D02*
X123608300Y-87058600D01*
%TO.N,Net-(Q3-B)*%
X125075000Y-87357600D02*
X125075000Y-86075000D01*
%TD*%
M02*
