%TF.GenerationSoftware,KiCad,Pcbnew,8.0.6*%
%TF.CreationDate,2024-10-26T20:07:40-05:00*%
%TF.ProjectId,FanPWMtoRotorLock,46616e50-574d-4746-9f52-6f746f724c6f,rev?*%
%TF.SameCoordinates,Original*%
%TF.FileFunction,Copper,L2,Bot*%
%TF.FilePolarity,Positive*%
%FSLAX46Y46*%
G04 Gerber Fmt 4.6, Leading zero omitted, Abs format (unit mm)*
G04 Created by KiCad (PCBNEW 8.0.6) date 2024-10-26 20:07:40*
%MOMM*%
%LPD*%
G01*
G04 APERTURE LIST*
G04 Aperture macros list*
%AMRoundRect*
0 Rectangle with rounded corners*
0 $1 Rounding radius*
0 $2 $3 $4 $5 $6 $7 $8 $9 X,Y pos of 4 corners*
0 Add a 4 corners polygon primitive as box body*
4,1,4,$2,$3,$4,$5,$6,$7,$8,$9,$2,$3,0*
0 Add four circle primitives for the rounded corners*
1,1,$1+$1,$2,$3*
1,1,$1+$1,$4,$5*
1,1,$1+$1,$6,$7*
1,1,$1+$1,$8,$9*
0 Add four rect primitives between the rounded corners*
20,1,$1+$1,$2,$3,$4,$5,0*
20,1,$1+$1,$4,$5,$6,$7,0*
20,1,$1+$1,$6,$7,$8,$9,0*
20,1,$1+$1,$8,$9,$2,$3,0*%
G04 Aperture macros list end*
%TA.AperFunction,ComponentPad*%
%ADD10RoundRect,0.250000X-0.350000X-0.625000X0.350000X-0.625000X0.350000X0.625000X-0.350000X0.625000X0*%
%TD*%
%TA.AperFunction,ComponentPad*%
%ADD11O,1.200000X1.750000*%
%TD*%
%TA.AperFunction,ComponentPad*%
%ADD12C,2.020000*%
%TD*%
%TA.AperFunction,SMDPad,CuDef*%
%ADD13RoundRect,0.150000X-0.825000X-0.150000X0.825000X-0.150000X0.825000X0.150000X-0.825000X0.150000X0*%
%TD*%
%TA.AperFunction,SMDPad,CuDef*%
%ADD14RoundRect,0.250000X-0.450000X0.350000X-0.450000X-0.350000X0.450000X-0.350000X0.450000X0.350000X0*%
%TD*%
%TA.AperFunction,SMDPad,CuDef*%
%ADD15RoundRect,0.250000X0.450000X-0.350000X0.450000X0.350000X-0.450000X0.350000X-0.450000X-0.350000X0*%
%TD*%
%TA.AperFunction,ViaPad*%
%ADD16C,0.600000*%
%TD*%
%TA.AperFunction,Conductor*%
%ADD17C,0.200000*%
%TD*%
G04 APERTURE END LIST*
D10*
%TO.P,J2,1*%
%TO.N,Net-(Q2-E)*%
X126100000Y-79925000D03*
D11*
%TO.P,J2,2*%
%TO.N,Net-(U1-R)*%
X128100000Y-79925000D03*
%TO.P,J2,3*%
%TO.N,Net-(Q2-C)*%
X130100000Y-79925000D03*
%TD*%
D12*
%TO.P,J1,1*%
%TO.N,Net-(Q2-E)*%
X116775000Y-81125000D03*
%TO.P,J1,2*%
%TO.N,Net-(U1-R)*%
X119315000Y-81125000D03*
%TO.P,J1,3*%
%TO.N,Net-(J1-Pad3)*%
X121855000Y-81125000D03*
%TD*%
D13*
%TO.P,U1,1,GND*%
%TO.N,Net-(Q2-E)*%
X116900000Y-88290000D03*
%TO.P,U1,2,TR*%
%TO.N,Net-(Q3-B)*%
X116900000Y-87020000D03*
%TO.P,U1,3,Q*%
%TO.N,Net-(U1-Q)*%
X116900000Y-85750000D03*
%TO.P,U1,4,R*%
%TO.N,Net-(U1-R)*%
X116900000Y-84480000D03*
%TO.P,U1,5,CV*%
%TO.N,unconnected-(U1-CV-Pad5)*%
X121850000Y-84480000D03*
%TO.P,U1,6,THR*%
%TO.N,Net-(U1-DIS)*%
X121850000Y-85750000D03*
%TO.P,U1,7,DIS*%
X121850000Y-87020000D03*
%TO.P,U1,8,VCC*%
%TO.N,Net-(U1-R)*%
X121850000Y-88290000D03*
%TD*%
D14*
%TO.P,R1,1*%
%TO.N,Net-(U1-R)*%
X127300000Y-84250000D03*
%TO.P,R1,2*%
%TO.N,Net-(J1-Pad3)*%
X127300000Y-86250000D03*
%TD*%
%TO.P,R2,1*%
%TO.N,Net-(J1-Pad3)*%
X124925000Y-84250000D03*
%TO.P,R2,2*%
%TO.N,Net-(Q3-B)*%
X124925000Y-86250000D03*
%TD*%
D15*
%TO.P,R6,1*%
%TO.N,Net-(U1-R)*%
X129625000Y-86250000D03*
%TO.P,R6,2*%
%TO.N,Net-(Q2-C)*%
X129625000Y-84250000D03*
%TD*%
D16*
%TO.N,Net-(U1-DIS)*%
X128279500Y-87435400D03*
%TO.N,Net-(U1-Q)*%
X118378000Y-85875000D03*
%TO.N,Net-(Q3-B)*%
X125075000Y-87357600D03*
%TD*%
D17*
%TO.N,Net-(U1-DIS)*%
X123720800Y-85329200D02*
X123300000Y-85750000D01*
X125585700Y-85329200D02*
X123720800Y-85329200D01*
X123300000Y-85750000D02*
X121850000Y-85750000D01*
%TO.N,Net-(J1-Pad3)*%
X125300000Y-84250000D02*
X124925000Y-84250000D01*
X124925000Y-84250000D02*
X124925000Y-84195000D01*
X124925000Y-84195000D02*
X121855000Y-81125000D01*
X127300000Y-86250000D02*
X125300000Y-84250000D01*
%TO.N,Net-(U1-R)*%
X124170400Y-79808400D02*
X125938700Y-81576700D01*
X117540800Y-84083400D02*
X117296600Y-84083400D01*
X121503200Y-88290000D02*
X118979700Y-85766500D01*
X118979700Y-85766500D02*
X118979700Y-85522300D01*
X121850000Y-88290000D02*
X121503200Y-88290000D01*
X117540800Y-84083400D02*
X117540800Y-82899200D01*
X117540800Y-82899200D02*
X119315000Y-81125000D01*
X117296600Y-84083400D02*
X116900000Y-84480000D01*
X127300000Y-84250000D02*
X127300000Y-81576700D01*
X119315000Y-81125000D02*
X120631600Y-79808400D01*
X120631600Y-79808400D02*
X124170400Y-79808400D01*
X127300000Y-81576700D02*
X127625000Y-81576700D01*
X127625000Y-84250000D02*
X129625000Y-86250000D01*
X127625000Y-81576700D02*
X128100000Y-81101700D01*
X118979700Y-85522300D02*
X117540800Y-84083400D01*
X127300000Y-84250000D02*
X127625000Y-84250000D01*
X128100000Y-79925000D02*
X128100000Y-81101700D01*
X125938700Y-81576700D02*
X127300000Y-81576700D01*
%TO.N,Net-(U1-DIS)*%
X126254000Y-85997500D02*
X126254000Y-86821000D01*
X126254000Y-86821000D02*
X126868400Y-87435400D01*
X125585700Y-85329200D02*
X126254000Y-85997500D01*
X126868400Y-87435400D02*
X128279500Y-87435400D01*
X121850000Y-85750000D02*
X121850000Y-87020000D01*
%TO.N,Net-(U1-Q)*%
X116900000Y-85750000D02*
X117025000Y-85875000D01*
X117025000Y-85875000D02*
X118378000Y-85875000D01*
%TO.N,Net-(Q2-E)*%
X116900000Y-88290000D02*
X116509900Y-88290000D01*
X116509900Y-88290000D02*
X115617400Y-87397500D01*
X115617400Y-87397500D02*
X115617400Y-82282600D01*
X115617400Y-82282600D02*
X116775000Y-81125000D01*
%TO.N,Net-(Q2-C)*%
X130100000Y-81101700D02*
X129625000Y-81576700D01*
X130100000Y-79925000D02*
X130100000Y-81101700D01*
X129625000Y-81576700D02*
X129625000Y-84250000D01*
%TO.N,Net-(Q3-B)*%
X122909300Y-88902800D02*
X124764800Y-87047300D01*
X124764800Y-87047300D02*
X124925000Y-86887100D01*
X119387000Y-88902800D02*
X122909300Y-88902800D01*
X116900000Y-87020000D02*
X117504200Y-87020000D01*
X124925000Y-86887100D02*
X124925000Y-86250000D01*
X124764800Y-87047300D02*
X125075000Y-87357600D01*
X117504200Y-87020000D02*
X119387000Y-88902800D01*
%TD*%
M02*
