%TF.GenerationSoftware,KiCad,Pcbnew,8.0.6*%
%TF.CreationDate,2024-10-26T20:07:44-05:00*%
%TF.ProjectId,FanPWMtoRotorLock,46616e50-574d-4746-9f52-6f746f724c6f,rev?*%
%TF.SameCoordinates,Original*%
%TF.FileFunction,Drillmap*%
%TF.FilePolarity,Positive*%
%FSLAX45Y45*%
G04 Gerber Fmt 4.5, Leading zero omitted, Abs format (unit mm)*
G04 Created by KiCad (PCBNEW 8.0.6) date 2024-10-26 20:07:44*
%MOMM*%
%LPD*%
G01*
G04 APERTURE LIST*
%ADD10C,0.050000*%
%ADD11C,0.200000*%
%ADD12C,0.100000*%
%ADD13C,0.102000*%
G04 APERTURE END LIST*
D10*
X11502500Y-7745000D02*
X13272500Y-7745000D01*
X13272500Y-8950000D01*
X11502500Y-8950000D01*
X11502500Y-7745000D01*
D11*
D12*
X11822800Y-8572500D02*
X11852800Y-8602500D01*
X11852800Y-8572500D02*
X11822800Y-8602500D01*
X12492500Y-8720760D02*
X12522500Y-8750760D01*
X12522500Y-8720760D02*
X12492500Y-8750760D01*
X12812950Y-8728540D02*
X12842950Y-8758540D01*
X12842950Y-8728540D02*
X12812950Y-8758540D01*
X12647500Y-7992500D02*
G75*
G02*
X12572500Y-7992500I-37500J0D01*
G01*
X12572500Y-7992500D02*
G75*
G02*
X12647500Y-7992500I37500J0D01*
G01*
X12847500Y-7992500D02*
G75*
G02*
X12772500Y-7992500I-37500J0D01*
G01*
X12772500Y-7992500D02*
G75*
G02*
X12847500Y-7992500I37500J0D01*
G01*
X13047500Y-7992500D02*
G75*
G02*
X12972500Y-7992500I-37500J0D01*
G01*
X12972500Y-7992500D02*
G75*
G02*
X13047500Y-7992500I37500J0D01*
G01*
D13*
X11677500Y-8061500D02*
X11677500Y-8163500D01*
X11626500Y-8112500D02*
X11728500Y-8112500D01*
X11931500Y-8061500D02*
X11931500Y-8163500D01*
X11880500Y-8112500D02*
X11982500Y-8112500D01*
X12185500Y-8061500D02*
X12185500Y-8163500D01*
X12134500Y-8112500D02*
X12236500Y-8112500D01*
D11*
X11760777Y-9263984D02*
X11760777Y-9063984D01*
X11760777Y-9063984D02*
X11808396Y-9063984D01*
X11808396Y-9063984D02*
X11836967Y-9073508D01*
X11836967Y-9073508D02*
X11856015Y-9092555D01*
X11856015Y-9092555D02*
X11865539Y-9111603D01*
X11865539Y-9111603D02*
X11875062Y-9149698D01*
X11875062Y-9149698D02*
X11875062Y-9178270D01*
X11875062Y-9178270D02*
X11865539Y-9216365D01*
X11865539Y-9216365D02*
X11856015Y-9235412D01*
X11856015Y-9235412D02*
X11836967Y-9254460D01*
X11836967Y-9254460D02*
X11808396Y-9263984D01*
X11808396Y-9263984D02*
X11760777Y-9263984D01*
X11960777Y-9263984D02*
X11960777Y-9130650D01*
X11960777Y-9168746D02*
X11970301Y-9149698D01*
X11970301Y-9149698D02*
X11979824Y-9140174D01*
X11979824Y-9140174D02*
X11998872Y-9130650D01*
X11998872Y-9130650D02*
X12017920Y-9130650D01*
X12084586Y-9263984D02*
X12084586Y-9130650D01*
X12084586Y-9063984D02*
X12075062Y-9073508D01*
X12075062Y-9073508D02*
X12084586Y-9083031D01*
X12084586Y-9083031D02*
X12094110Y-9073508D01*
X12094110Y-9073508D02*
X12084586Y-9063984D01*
X12084586Y-9063984D02*
X12084586Y-9083031D01*
X12208396Y-9263984D02*
X12189348Y-9254460D01*
X12189348Y-9254460D02*
X12179824Y-9235412D01*
X12179824Y-9235412D02*
X12179824Y-9063984D01*
X12313158Y-9263984D02*
X12294110Y-9254460D01*
X12294110Y-9254460D02*
X12284586Y-9235412D01*
X12284586Y-9235412D02*
X12284586Y-9063984D01*
X12541729Y-9263984D02*
X12541729Y-9063984D01*
X12541729Y-9063984D02*
X12608396Y-9206841D01*
X12608396Y-9206841D02*
X12675062Y-9063984D01*
X12675062Y-9063984D02*
X12675062Y-9263984D01*
X12856015Y-9263984D02*
X12856015Y-9159222D01*
X12856015Y-9159222D02*
X12846491Y-9140174D01*
X12846491Y-9140174D02*
X12827443Y-9130650D01*
X12827443Y-9130650D02*
X12789348Y-9130650D01*
X12789348Y-9130650D02*
X12770301Y-9140174D01*
X12856015Y-9254460D02*
X12836967Y-9263984D01*
X12836967Y-9263984D02*
X12789348Y-9263984D01*
X12789348Y-9263984D02*
X12770301Y-9254460D01*
X12770301Y-9254460D02*
X12760777Y-9235412D01*
X12760777Y-9235412D02*
X12760777Y-9216365D01*
X12760777Y-9216365D02*
X12770301Y-9197317D01*
X12770301Y-9197317D02*
X12789348Y-9187793D01*
X12789348Y-9187793D02*
X12836967Y-9187793D01*
X12836967Y-9187793D02*
X12856015Y-9178270D01*
X12951253Y-9130650D02*
X12951253Y-9330650D01*
X12951253Y-9140174D02*
X12970301Y-9130650D01*
X12970301Y-9130650D02*
X13008396Y-9130650D01*
X13008396Y-9130650D02*
X13027443Y-9140174D01*
X13027443Y-9140174D02*
X13036967Y-9149698D01*
X13036967Y-9149698D02*
X13046491Y-9168746D01*
X13046491Y-9168746D02*
X13046491Y-9225889D01*
X13046491Y-9225889D02*
X13036967Y-9244936D01*
X13036967Y-9244936D02*
X13027443Y-9254460D01*
X13027443Y-9254460D02*
X13008396Y-9263984D01*
X13008396Y-9263984D02*
X12970301Y-9263984D01*
X12970301Y-9263984D02*
X12951253Y-9254460D01*
X13132205Y-9244936D02*
X13141729Y-9254460D01*
X13141729Y-9254460D02*
X13132205Y-9263984D01*
X13132205Y-9263984D02*
X13122682Y-9254460D01*
X13122682Y-9254460D02*
X13132205Y-9244936D01*
X13132205Y-9244936D02*
X13132205Y-9263984D01*
X13132205Y-9140174D02*
X13141729Y-9149698D01*
X13141729Y-9149698D02*
X13132205Y-9159222D01*
X13132205Y-9159222D02*
X13122682Y-9149698D01*
X13122682Y-9149698D02*
X13132205Y-9140174D01*
X13132205Y-9140174D02*
X13132205Y-9159222D01*
D12*
X11470000Y-9577500D02*
X11500000Y-9607500D01*
X11500000Y-9577500D02*
X11470000Y-9607500D01*
D11*
X11798872Y-9483984D02*
X11817920Y-9483984D01*
X11817920Y-9483984D02*
X11836967Y-9493508D01*
X11836967Y-9493508D02*
X11846491Y-9503031D01*
X11846491Y-9503031D02*
X11856015Y-9522079D01*
X11856015Y-9522079D02*
X11865539Y-9560174D01*
X11865539Y-9560174D02*
X11865539Y-9607793D01*
X11865539Y-9607793D02*
X11856015Y-9645889D01*
X11856015Y-9645889D02*
X11846491Y-9664936D01*
X11846491Y-9664936D02*
X11836967Y-9674460D01*
X11836967Y-9674460D02*
X11817920Y-9683984D01*
X11817920Y-9683984D02*
X11798872Y-9683984D01*
X11798872Y-9683984D02*
X11779824Y-9674460D01*
X11779824Y-9674460D02*
X11770301Y-9664936D01*
X11770301Y-9664936D02*
X11760777Y-9645889D01*
X11760777Y-9645889D02*
X11751253Y-9607793D01*
X11751253Y-9607793D02*
X11751253Y-9560174D01*
X11751253Y-9560174D02*
X11760777Y-9522079D01*
X11760777Y-9522079D02*
X11770301Y-9503031D01*
X11770301Y-9503031D02*
X11779824Y-9493508D01*
X11779824Y-9493508D02*
X11798872Y-9483984D01*
X11951253Y-9664936D02*
X11960777Y-9674460D01*
X11960777Y-9674460D02*
X11951253Y-9683984D01*
X11951253Y-9683984D02*
X11941729Y-9674460D01*
X11941729Y-9674460D02*
X11951253Y-9664936D01*
X11951253Y-9664936D02*
X11951253Y-9683984D01*
X12027443Y-9483984D02*
X12151253Y-9483984D01*
X12151253Y-9483984D02*
X12084586Y-9560174D01*
X12084586Y-9560174D02*
X12113158Y-9560174D01*
X12113158Y-9560174D02*
X12132205Y-9569698D01*
X12132205Y-9569698D02*
X12141729Y-9579222D01*
X12141729Y-9579222D02*
X12151253Y-9598270D01*
X12151253Y-9598270D02*
X12151253Y-9645889D01*
X12151253Y-9645889D02*
X12141729Y-9664936D01*
X12141729Y-9664936D02*
X12132205Y-9674460D01*
X12132205Y-9674460D02*
X12113158Y-9683984D01*
X12113158Y-9683984D02*
X12056015Y-9683984D01*
X12056015Y-9683984D02*
X12036967Y-9674460D01*
X12036967Y-9674460D02*
X12027443Y-9664936D01*
X12275062Y-9483984D02*
X12294110Y-9483984D01*
X12294110Y-9483984D02*
X12313158Y-9493508D01*
X12313158Y-9493508D02*
X12322682Y-9503031D01*
X12322682Y-9503031D02*
X12332205Y-9522079D01*
X12332205Y-9522079D02*
X12341729Y-9560174D01*
X12341729Y-9560174D02*
X12341729Y-9607793D01*
X12341729Y-9607793D02*
X12332205Y-9645889D01*
X12332205Y-9645889D02*
X12322682Y-9664936D01*
X12322682Y-9664936D02*
X12313158Y-9674460D01*
X12313158Y-9674460D02*
X12294110Y-9683984D01*
X12294110Y-9683984D02*
X12275062Y-9683984D01*
X12275062Y-9683984D02*
X12256015Y-9674460D01*
X12256015Y-9674460D02*
X12246491Y-9664936D01*
X12246491Y-9664936D02*
X12236967Y-9645889D01*
X12236967Y-9645889D02*
X12227443Y-9607793D01*
X12227443Y-9607793D02*
X12227443Y-9560174D01*
X12227443Y-9560174D02*
X12236967Y-9522079D01*
X12236967Y-9522079D02*
X12246491Y-9503031D01*
X12246491Y-9503031D02*
X12256015Y-9493508D01*
X12256015Y-9493508D02*
X12275062Y-9483984D01*
X12465539Y-9483984D02*
X12484586Y-9483984D01*
X12484586Y-9483984D02*
X12503634Y-9493508D01*
X12503634Y-9493508D02*
X12513158Y-9503031D01*
X12513158Y-9503031D02*
X12522682Y-9522079D01*
X12522682Y-9522079D02*
X12532205Y-9560174D01*
X12532205Y-9560174D02*
X12532205Y-9607793D01*
X12532205Y-9607793D02*
X12522682Y-9645889D01*
X12522682Y-9645889D02*
X12513158Y-9664936D01*
X12513158Y-9664936D02*
X12503634Y-9674460D01*
X12503634Y-9674460D02*
X12484586Y-9683984D01*
X12484586Y-9683984D02*
X12465539Y-9683984D01*
X12465539Y-9683984D02*
X12446491Y-9674460D01*
X12446491Y-9674460D02*
X12436967Y-9664936D01*
X12436967Y-9664936D02*
X12427443Y-9645889D01*
X12427443Y-9645889D02*
X12417920Y-9607793D01*
X12417920Y-9607793D02*
X12417920Y-9560174D01*
X12417920Y-9560174D02*
X12427443Y-9522079D01*
X12427443Y-9522079D02*
X12436967Y-9503031D01*
X12436967Y-9503031D02*
X12446491Y-9493508D01*
X12446491Y-9493508D02*
X12465539Y-9483984D01*
X12617920Y-9683984D02*
X12617920Y-9550650D01*
X12617920Y-9569698D02*
X12627443Y-9560174D01*
X12627443Y-9560174D02*
X12646491Y-9550650D01*
X12646491Y-9550650D02*
X12675063Y-9550650D01*
X12675063Y-9550650D02*
X12694110Y-9560174D01*
X12694110Y-9560174D02*
X12703634Y-9579222D01*
X12703634Y-9579222D02*
X12703634Y-9683984D01*
X12703634Y-9579222D02*
X12713158Y-9560174D01*
X12713158Y-9560174D02*
X12732205Y-9550650D01*
X12732205Y-9550650D02*
X12760777Y-9550650D01*
X12760777Y-9550650D02*
X12779824Y-9560174D01*
X12779824Y-9560174D02*
X12789348Y-9579222D01*
X12789348Y-9579222D02*
X12789348Y-9683984D01*
X12884586Y-9683984D02*
X12884586Y-9550650D01*
X12884586Y-9569698D02*
X12894110Y-9560174D01*
X12894110Y-9560174D02*
X12913158Y-9550650D01*
X12913158Y-9550650D02*
X12941729Y-9550650D01*
X12941729Y-9550650D02*
X12960777Y-9560174D01*
X12960777Y-9560174D02*
X12970301Y-9579222D01*
X12970301Y-9579222D02*
X12970301Y-9683984D01*
X12970301Y-9579222D02*
X12979824Y-9560174D01*
X12979824Y-9560174D02*
X12998872Y-9550650D01*
X12998872Y-9550650D02*
X13027443Y-9550650D01*
X13027443Y-9550650D02*
X13046491Y-9560174D01*
X13046491Y-9560174D02*
X13056015Y-9579222D01*
X13056015Y-9579222D02*
X13056015Y-9683984D01*
X13446491Y-9474460D02*
X13275063Y-9731603D01*
X13703634Y-9483984D02*
X13722682Y-9483984D01*
X13722682Y-9483984D02*
X13741729Y-9493508D01*
X13741729Y-9493508D02*
X13751253Y-9503031D01*
X13751253Y-9503031D02*
X13760777Y-9522079D01*
X13760777Y-9522079D02*
X13770301Y-9560174D01*
X13770301Y-9560174D02*
X13770301Y-9607793D01*
X13770301Y-9607793D02*
X13760777Y-9645889D01*
X13760777Y-9645889D02*
X13751253Y-9664936D01*
X13751253Y-9664936D02*
X13741729Y-9674460D01*
X13741729Y-9674460D02*
X13722682Y-9683984D01*
X13722682Y-9683984D02*
X13703634Y-9683984D01*
X13703634Y-9683984D02*
X13684586Y-9674460D01*
X13684586Y-9674460D02*
X13675063Y-9664936D01*
X13675063Y-9664936D02*
X13665539Y-9645889D01*
X13665539Y-9645889D02*
X13656015Y-9607793D01*
X13656015Y-9607793D02*
X13656015Y-9560174D01*
X13656015Y-9560174D02*
X13665539Y-9522079D01*
X13665539Y-9522079D02*
X13675063Y-9503031D01*
X13675063Y-9503031D02*
X13684586Y-9493508D01*
X13684586Y-9493508D02*
X13703634Y-9483984D01*
X13856015Y-9664936D02*
X13865539Y-9674460D01*
X13865539Y-9674460D02*
X13856015Y-9683984D01*
X13856015Y-9683984D02*
X13846491Y-9674460D01*
X13846491Y-9674460D02*
X13856015Y-9664936D01*
X13856015Y-9664936D02*
X13856015Y-9683984D01*
X13989348Y-9483984D02*
X14008396Y-9483984D01*
X14008396Y-9483984D02*
X14027444Y-9493508D01*
X14027444Y-9493508D02*
X14036967Y-9503031D01*
X14036967Y-9503031D02*
X14046491Y-9522079D01*
X14046491Y-9522079D02*
X14056015Y-9560174D01*
X14056015Y-9560174D02*
X14056015Y-9607793D01*
X14056015Y-9607793D02*
X14046491Y-9645889D01*
X14046491Y-9645889D02*
X14036967Y-9664936D01*
X14036967Y-9664936D02*
X14027444Y-9674460D01*
X14027444Y-9674460D02*
X14008396Y-9683984D01*
X14008396Y-9683984D02*
X13989348Y-9683984D01*
X13989348Y-9683984D02*
X13970301Y-9674460D01*
X13970301Y-9674460D02*
X13960777Y-9664936D01*
X13960777Y-9664936D02*
X13951253Y-9645889D01*
X13951253Y-9645889D02*
X13941729Y-9607793D01*
X13941729Y-9607793D02*
X13941729Y-9560174D01*
X13941729Y-9560174D02*
X13951253Y-9522079D01*
X13951253Y-9522079D02*
X13960777Y-9503031D01*
X13960777Y-9503031D02*
X13970301Y-9493508D01*
X13970301Y-9493508D02*
X13989348Y-9483984D01*
X14246491Y-9683984D02*
X14132206Y-9683984D01*
X14189348Y-9683984D02*
X14189348Y-9483984D01*
X14189348Y-9483984D02*
X14170301Y-9512555D01*
X14170301Y-9512555D02*
X14151253Y-9531603D01*
X14151253Y-9531603D02*
X14132206Y-9541127D01*
X14436967Y-9683984D02*
X14322682Y-9683984D01*
X14379825Y-9683984D02*
X14379825Y-9483984D01*
X14379825Y-9483984D02*
X14360777Y-9512555D01*
X14360777Y-9512555D02*
X14341729Y-9531603D01*
X14341729Y-9531603D02*
X14322682Y-9541127D01*
X14551253Y-9569698D02*
X14532206Y-9560174D01*
X14532206Y-9560174D02*
X14522682Y-9550650D01*
X14522682Y-9550650D02*
X14513158Y-9531603D01*
X14513158Y-9531603D02*
X14513158Y-9522079D01*
X14513158Y-9522079D02*
X14522682Y-9503031D01*
X14522682Y-9503031D02*
X14532206Y-9493508D01*
X14532206Y-9493508D02*
X14551253Y-9483984D01*
X14551253Y-9483984D02*
X14589348Y-9483984D01*
X14589348Y-9483984D02*
X14608396Y-9493508D01*
X14608396Y-9493508D02*
X14617920Y-9503031D01*
X14617920Y-9503031D02*
X14627444Y-9522079D01*
X14627444Y-9522079D02*
X14627444Y-9531603D01*
X14627444Y-9531603D02*
X14617920Y-9550650D01*
X14617920Y-9550650D02*
X14608396Y-9560174D01*
X14608396Y-9560174D02*
X14589348Y-9569698D01*
X14589348Y-9569698D02*
X14551253Y-9569698D01*
X14551253Y-9569698D02*
X14532206Y-9579222D01*
X14532206Y-9579222D02*
X14522682Y-9588746D01*
X14522682Y-9588746D02*
X14513158Y-9607793D01*
X14513158Y-9607793D02*
X14513158Y-9645889D01*
X14513158Y-9645889D02*
X14522682Y-9664936D01*
X14522682Y-9664936D02*
X14532206Y-9674460D01*
X14532206Y-9674460D02*
X14551253Y-9683984D01*
X14551253Y-9683984D02*
X14589348Y-9683984D01*
X14589348Y-9683984D02*
X14608396Y-9674460D01*
X14608396Y-9674460D02*
X14617920Y-9664936D01*
X14617920Y-9664936D02*
X14627444Y-9645889D01*
X14627444Y-9645889D02*
X14627444Y-9607793D01*
X14627444Y-9607793D02*
X14617920Y-9588746D01*
X14617920Y-9588746D02*
X14608396Y-9579222D01*
X14608396Y-9579222D02*
X14589348Y-9569698D01*
X14703634Y-9483984D02*
X14703634Y-9522079D01*
X14779825Y-9483984D02*
X14779825Y-9522079D01*
X15075063Y-9760174D02*
X15065539Y-9750650D01*
X15065539Y-9750650D02*
X15046491Y-9722079D01*
X15046491Y-9722079D02*
X15036968Y-9703031D01*
X15036968Y-9703031D02*
X15027444Y-9674460D01*
X15027444Y-9674460D02*
X15017920Y-9626841D01*
X15017920Y-9626841D02*
X15017920Y-9588746D01*
X15017920Y-9588746D02*
X15027444Y-9541127D01*
X15027444Y-9541127D02*
X15036968Y-9512555D01*
X15036968Y-9512555D02*
X15046491Y-9493508D01*
X15046491Y-9493508D02*
X15065539Y-9464936D01*
X15065539Y-9464936D02*
X15075063Y-9455412D01*
X15132206Y-9483984D02*
X15256015Y-9483984D01*
X15256015Y-9483984D02*
X15189348Y-9560174D01*
X15189348Y-9560174D02*
X15217920Y-9560174D01*
X15217920Y-9560174D02*
X15236968Y-9569698D01*
X15236968Y-9569698D02*
X15246491Y-9579222D01*
X15246491Y-9579222D02*
X15256015Y-9598270D01*
X15256015Y-9598270D02*
X15256015Y-9645889D01*
X15256015Y-9645889D02*
X15246491Y-9664936D01*
X15246491Y-9664936D02*
X15236968Y-9674460D01*
X15236968Y-9674460D02*
X15217920Y-9683984D01*
X15217920Y-9683984D02*
X15160777Y-9683984D01*
X15160777Y-9683984D02*
X15141729Y-9674460D01*
X15141729Y-9674460D02*
X15132206Y-9664936D01*
X15494110Y-9683984D02*
X15494110Y-9483984D01*
X15579825Y-9683984D02*
X15579825Y-9579222D01*
X15579825Y-9579222D02*
X15570301Y-9560174D01*
X15570301Y-9560174D02*
X15551253Y-9550650D01*
X15551253Y-9550650D02*
X15522682Y-9550650D01*
X15522682Y-9550650D02*
X15503634Y-9560174D01*
X15503634Y-9560174D02*
X15494110Y-9569698D01*
X15703634Y-9683984D02*
X15684587Y-9674460D01*
X15684587Y-9674460D02*
X15675063Y-9664936D01*
X15675063Y-9664936D02*
X15665539Y-9645889D01*
X15665539Y-9645889D02*
X15665539Y-9588746D01*
X15665539Y-9588746D02*
X15675063Y-9569698D01*
X15675063Y-9569698D02*
X15684587Y-9560174D01*
X15684587Y-9560174D02*
X15703634Y-9550650D01*
X15703634Y-9550650D02*
X15732206Y-9550650D01*
X15732206Y-9550650D02*
X15751253Y-9560174D01*
X15751253Y-9560174D02*
X15760777Y-9569698D01*
X15760777Y-9569698D02*
X15770301Y-9588746D01*
X15770301Y-9588746D02*
X15770301Y-9645889D01*
X15770301Y-9645889D02*
X15760777Y-9664936D01*
X15760777Y-9664936D02*
X15751253Y-9674460D01*
X15751253Y-9674460D02*
X15732206Y-9683984D01*
X15732206Y-9683984D02*
X15703634Y-9683984D01*
X15884587Y-9683984D02*
X15865539Y-9674460D01*
X15865539Y-9674460D02*
X15856015Y-9655412D01*
X15856015Y-9655412D02*
X15856015Y-9483984D01*
X16036968Y-9674460D02*
X16017920Y-9683984D01*
X16017920Y-9683984D02*
X15979825Y-9683984D01*
X15979825Y-9683984D02*
X15960777Y-9674460D01*
X15960777Y-9674460D02*
X15951253Y-9655412D01*
X15951253Y-9655412D02*
X15951253Y-9579222D01*
X15951253Y-9579222D02*
X15960777Y-9560174D01*
X15960777Y-9560174D02*
X15979825Y-9550650D01*
X15979825Y-9550650D02*
X16017920Y-9550650D01*
X16017920Y-9550650D02*
X16036968Y-9560174D01*
X16036968Y-9560174D02*
X16046491Y-9579222D01*
X16046491Y-9579222D02*
X16046491Y-9598270D01*
X16046491Y-9598270D02*
X15951253Y-9617317D01*
X16122682Y-9674460D02*
X16141730Y-9683984D01*
X16141730Y-9683984D02*
X16179825Y-9683984D01*
X16179825Y-9683984D02*
X16198872Y-9674460D01*
X16198872Y-9674460D02*
X16208396Y-9655412D01*
X16208396Y-9655412D02*
X16208396Y-9645889D01*
X16208396Y-9645889D02*
X16198872Y-9626841D01*
X16198872Y-9626841D02*
X16179825Y-9617317D01*
X16179825Y-9617317D02*
X16151253Y-9617317D01*
X16151253Y-9617317D02*
X16132206Y-9607793D01*
X16132206Y-9607793D02*
X16122682Y-9588746D01*
X16122682Y-9588746D02*
X16122682Y-9579222D01*
X16122682Y-9579222D02*
X16132206Y-9560174D01*
X16132206Y-9560174D02*
X16151253Y-9550650D01*
X16151253Y-9550650D02*
X16179825Y-9550650D01*
X16179825Y-9550650D02*
X16198872Y-9560174D01*
X16275063Y-9760174D02*
X16284587Y-9750650D01*
X16284587Y-9750650D02*
X16303634Y-9722079D01*
X16303634Y-9722079D02*
X16313158Y-9703031D01*
X16313158Y-9703031D02*
X16322682Y-9674460D01*
X16322682Y-9674460D02*
X16332206Y-9626841D01*
X16332206Y-9626841D02*
X16332206Y-9588746D01*
X16332206Y-9588746D02*
X16322682Y-9541127D01*
X16322682Y-9541127D02*
X16313158Y-9512555D01*
X16313158Y-9512555D02*
X16303634Y-9493508D01*
X16303634Y-9493508D02*
X16284587Y-9464936D01*
X16284587Y-9464936D02*
X16275063Y-9455412D01*
D12*
X11500000Y-9856500D02*
G75*
G02*
X11425000Y-9856500I-37500J0D01*
G01*
X11425000Y-9856500D02*
G75*
G02*
X11500000Y-9856500I37500J0D01*
G01*
D11*
X11798872Y-9747984D02*
X11817920Y-9747984D01*
X11817920Y-9747984D02*
X11836967Y-9757508D01*
X11836967Y-9757508D02*
X11846491Y-9767031D01*
X11846491Y-9767031D02*
X11856015Y-9786079D01*
X11856015Y-9786079D02*
X11865539Y-9824174D01*
X11865539Y-9824174D02*
X11865539Y-9871793D01*
X11865539Y-9871793D02*
X11856015Y-9909889D01*
X11856015Y-9909889D02*
X11846491Y-9928936D01*
X11846491Y-9928936D02*
X11836967Y-9938460D01*
X11836967Y-9938460D02*
X11817920Y-9947984D01*
X11817920Y-9947984D02*
X11798872Y-9947984D01*
X11798872Y-9947984D02*
X11779824Y-9938460D01*
X11779824Y-9938460D02*
X11770301Y-9928936D01*
X11770301Y-9928936D02*
X11760777Y-9909889D01*
X11760777Y-9909889D02*
X11751253Y-9871793D01*
X11751253Y-9871793D02*
X11751253Y-9824174D01*
X11751253Y-9824174D02*
X11760777Y-9786079D01*
X11760777Y-9786079D02*
X11770301Y-9767031D01*
X11770301Y-9767031D02*
X11779824Y-9757508D01*
X11779824Y-9757508D02*
X11798872Y-9747984D01*
X11951253Y-9928936D02*
X11960777Y-9938460D01*
X11960777Y-9938460D02*
X11951253Y-9947984D01*
X11951253Y-9947984D02*
X11941729Y-9938460D01*
X11941729Y-9938460D02*
X11951253Y-9928936D01*
X11951253Y-9928936D02*
X11951253Y-9947984D01*
X12027443Y-9747984D02*
X12160777Y-9747984D01*
X12160777Y-9747984D02*
X12075062Y-9947984D01*
X12332205Y-9747984D02*
X12236967Y-9747984D01*
X12236967Y-9747984D02*
X12227443Y-9843222D01*
X12227443Y-9843222D02*
X12236967Y-9833698D01*
X12236967Y-9833698D02*
X12256015Y-9824174D01*
X12256015Y-9824174D02*
X12303634Y-9824174D01*
X12303634Y-9824174D02*
X12322682Y-9833698D01*
X12322682Y-9833698D02*
X12332205Y-9843222D01*
X12332205Y-9843222D02*
X12341729Y-9862270D01*
X12341729Y-9862270D02*
X12341729Y-9909889D01*
X12341729Y-9909889D02*
X12332205Y-9928936D01*
X12332205Y-9928936D02*
X12322682Y-9938460D01*
X12322682Y-9938460D02*
X12303634Y-9947984D01*
X12303634Y-9947984D02*
X12256015Y-9947984D01*
X12256015Y-9947984D02*
X12236967Y-9938460D01*
X12236967Y-9938460D02*
X12227443Y-9928936D01*
X12465539Y-9747984D02*
X12484586Y-9747984D01*
X12484586Y-9747984D02*
X12503634Y-9757508D01*
X12503634Y-9757508D02*
X12513158Y-9767031D01*
X12513158Y-9767031D02*
X12522682Y-9786079D01*
X12522682Y-9786079D02*
X12532205Y-9824174D01*
X12532205Y-9824174D02*
X12532205Y-9871793D01*
X12532205Y-9871793D02*
X12522682Y-9909889D01*
X12522682Y-9909889D02*
X12513158Y-9928936D01*
X12513158Y-9928936D02*
X12503634Y-9938460D01*
X12503634Y-9938460D02*
X12484586Y-9947984D01*
X12484586Y-9947984D02*
X12465539Y-9947984D01*
X12465539Y-9947984D02*
X12446491Y-9938460D01*
X12446491Y-9938460D02*
X12436967Y-9928936D01*
X12436967Y-9928936D02*
X12427443Y-9909889D01*
X12427443Y-9909889D02*
X12417920Y-9871793D01*
X12417920Y-9871793D02*
X12417920Y-9824174D01*
X12417920Y-9824174D02*
X12427443Y-9786079D01*
X12427443Y-9786079D02*
X12436967Y-9767031D01*
X12436967Y-9767031D02*
X12446491Y-9757508D01*
X12446491Y-9757508D02*
X12465539Y-9747984D01*
X12617920Y-9947984D02*
X12617920Y-9814650D01*
X12617920Y-9833698D02*
X12627443Y-9824174D01*
X12627443Y-9824174D02*
X12646491Y-9814650D01*
X12646491Y-9814650D02*
X12675063Y-9814650D01*
X12675063Y-9814650D02*
X12694110Y-9824174D01*
X12694110Y-9824174D02*
X12703634Y-9843222D01*
X12703634Y-9843222D02*
X12703634Y-9947984D01*
X12703634Y-9843222D02*
X12713158Y-9824174D01*
X12713158Y-9824174D02*
X12732205Y-9814650D01*
X12732205Y-9814650D02*
X12760777Y-9814650D01*
X12760777Y-9814650D02*
X12779824Y-9824174D01*
X12779824Y-9824174D02*
X12789348Y-9843222D01*
X12789348Y-9843222D02*
X12789348Y-9947984D01*
X12884586Y-9947984D02*
X12884586Y-9814650D01*
X12884586Y-9833698D02*
X12894110Y-9824174D01*
X12894110Y-9824174D02*
X12913158Y-9814650D01*
X12913158Y-9814650D02*
X12941729Y-9814650D01*
X12941729Y-9814650D02*
X12960777Y-9824174D01*
X12960777Y-9824174D02*
X12970301Y-9843222D01*
X12970301Y-9843222D02*
X12970301Y-9947984D01*
X12970301Y-9843222D02*
X12979824Y-9824174D01*
X12979824Y-9824174D02*
X12998872Y-9814650D01*
X12998872Y-9814650D02*
X13027443Y-9814650D01*
X13027443Y-9814650D02*
X13046491Y-9824174D01*
X13046491Y-9824174D02*
X13056015Y-9843222D01*
X13056015Y-9843222D02*
X13056015Y-9947984D01*
X13446491Y-9738460D02*
X13275063Y-9995603D01*
X13703634Y-9747984D02*
X13722682Y-9747984D01*
X13722682Y-9747984D02*
X13741729Y-9757508D01*
X13741729Y-9757508D02*
X13751253Y-9767031D01*
X13751253Y-9767031D02*
X13760777Y-9786079D01*
X13760777Y-9786079D02*
X13770301Y-9824174D01*
X13770301Y-9824174D02*
X13770301Y-9871793D01*
X13770301Y-9871793D02*
X13760777Y-9909889D01*
X13760777Y-9909889D02*
X13751253Y-9928936D01*
X13751253Y-9928936D02*
X13741729Y-9938460D01*
X13741729Y-9938460D02*
X13722682Y-9947984D01*
X13722682Y-9947984D02*
X13703634Y-9947984D01*
X13703634Y-9947984D02*
X13684586Y-9938460D01*
X13684586Y-9938460D02*
X13675063Y-9928936D01*
X13675063Y-9928936D02*
X13665539Y-9909889D01*
X13665539Y-9909889D02*
X13656015Y-9871793D01*
X13656015Y-9871793D02*
X13656015Y-9824174D01*
X13656015Y-9824174D02*
X13665539Y-9786079D01*
X13665539Y-9786079D02*
X13675063Y-9767031D01*
X13675063Y-9767031D02*
X13684586Y-9757508D01*
X13684586Y-9757508D02*
X13703634Y-9747984D01*
X13856015Y-9928936D02*
X13865539Y-9938460D01*
X13865539Y-9938460D02*
X13856015Y-9947984D01*
X13856015Y-9947984D02*
X13846491Y-9938460D01*
X13846491Y-9938460D02*
X13856015Y-9928936D01*
X13856015Y-9928936D02*
X13856015Y-9947984D01*
X13989348Y-9747984D02*
X14008396Y-9747984D01*
X14008396Y-9747984D02*
X14027444Y-9757508D01*
X14027444Y-9757508D02*
X14036967Y-9767031D01*
X14036967Y-9767031D02*
X14046491Y-9786079D01*
X14046491Y-9786079D02*
X14056015Y-9824174D01*
X14056015Y-9824174D02*
X14056015Y-9871793D01*
X14056015Y-9871793D02*
X14046491Y-9909889D01*
X14046491Y-9909889D02*
X14036967Y-9928936D01*
X14036967Y-9928936D02*
X14027444Y-9938460D01*
X14027444Y-9938460D02*
X14008396Y-9947984D01*
X14008396Y-9947984D02*
X13989348Y-9947984D01*
X13989348Y-9947984D02*
X13970301Y-9938460D01*
X13970301Y-9938460D02*
X13960777Y-9928936D01*
X13960777Y-9928936D02*
X13951253Y-9909889D01*
X13951253Y-9909889D02*
X13941729Y-9871793D01*
X13941729Y-9871793D02*
X13941729Y-9824174D01*
X13941729Y-9824174D02*
X13951253Y-9786079D01*
X13951253Y-9786079D02*
X13960777Y-9767031D01*
X13960777Y-9767031D02*
X13970301Y-9757508D01*
X13970301Y-9757508D02*
X13989348Y-9747984D01*
X14132206Y-9767031D02*
X14141729Y-9757508D01*
X14141729Y-9757508D02*
X14160777Y-9747984D01*
X14160777Y-9747984D02*
X14208396Y-9747984D01*
X14208396Y-9747984D02*
X14227444Y-9757508D01*
X14227444Y-9757508D02*
X14236967Y-9767031D01*
X14236967Y-9767031D02*
X14246491Y-9786079D01*
X14246491Y-9786079D02*
X14246491Y-9805127D01*
X14246491Y-9805127D02*
X14236967Y-9833698D01*
X14236967Y-9833698D02*
X14122682Y-9947984D01*
X14122682Y-9947984D02*
X14246491Y-9947984D01*
X14341729Y-9947984D02*
X14379825Y-9947984D01*
X14379825Y-9947984D02*
X14398872Y-9938460D01*
X14398872Y-9938460D02*
X14408396Y-9928936D01*
X14408396Y-9928936D02*
X14427444Y-9900365D01*
X14427444Y-9900365D02*
X14436967Y-9862270D01*
X14436967Y-9862270D02*
X14436967Y-9786079D01*
X14436967Y-9786079D02*
X14427444Y-9767031D01*
X14427444Y-9767031D02*
X14417920Y-9757508D01*
X14417920Y-9757508D02*
X14398872Y-9747984D01*
X14398872Y-9747984D02*
X14360777Y-9747984D01*
X14360777Y-9747984D02*
X14341729Y-9757508D01*
X14341729Y-9757508D02*
X14332206Y-9767031D01*
X14332206Y-9767031D02*
X14322682Y-9786079D01*
X14322682Y-9786079D02*
X14322682Y-9833698D01*
X14322682Y-9833698D02*
X14332206Y-9852746D01*
X14332206Y-9852746D02*
X14341729Y-9862270D01*
X14341729Y-9862270D02*
X14360777Y-9871793D01*
X14360777Y-9871793D02*
X14398872Y-9871793D01*
X14398872Y-9871793D02*
X14417920Y-9862270D01*
X14417920Y-9862270D02*
X14427444Y-9852746D01*
X14427444Y-9852746D02*
X14436967Y-9833698D01*
X14617920Y-9747984D02*
X14522682Y-9747984D01*
X14522682Y-9747984D02*
X14513158Y-9843222D01*
X14513158Y-9843222D02*
X14522682Y-9833698D01*
X14522682Y-9833698D02*
X14541729Y-9824174D01*
X14541729Y-9824174D02*
X14589348Y-9824174D01*
X14589348Y-9824174D02*
X14608396Y-9833698D01*
X14608396Y-9833698D02*
X14617920Y-9843222D01*
X14617920Y-9843222D02*
X14627444Y-9862270D01*
X14627444Y-9862270D02*
X14627444Y-9909889D01*
X14627444Y-9909889D02*
X14617920Y-9928936D01*
X14617920Y-9928936D02*
X14608396Y-9938460D01*
X14608396Y-9938460D02*
X14589348Y-9947984D01*
X14589348Y-9947984D02*
X14541729Y-9947984D01*
X14541729Y-9947984D02*
X14522682Y-9938460D01*
X14522682Y-9938460D02*
X14513158Y-9928936D01*
X14703634Y-9747984D02*
X14703634Y-9786079D01*
X14779825Y-9747984D02*
X14779825Y-9786079D01*
X15075063Y-10024174D02*
X15065539Y-10014650D01*
X15065539Y-10014650D02*
X15046491Y-9986079D01*
X15046491Y-9986079D02*
X15036968Y-9967031D01*
X15036968Y-9967031D02*
X15027444Y-9938460D01*
X15027444Y-9938460D02*
X15017920Y-9890841D01*
X15017920Y-9890841D02*
X15017920Y-9852746D01*
X15017920Y-9852746D02*
X15027444Y-9805127D01*
X15027444Y-9805127D02*
X15036968Y-9776555D01*
X15036968Y-9776555D02*
X15046491Y-9757508D01*
X15046491Y-9757508D02*
X15065539Y-9728936D01*
X15065539Y-9728936D02*
X15075063Y-9719412D01*
X15132206Y-9747984D02*
X15256015Y-9747984D01*
X15256015Y-9747984D02*
X15189348Y-9824174D01*
X15189348Y-9824174D02*
X15217920Y-9824174D01*
X15217920Y-9824174D02*
X15236968Y-9833698D01*
X15236968Y-9833698D02*
X15246491Y-9843222D01*
X15246491Y-9843222D02*
X15256015Y-9862270D01*
X15256015Y-9862270D02*
X15256015Y-9909889D01*
X15256015Y-9909889D02*
X15246491Y-9928936D01*
X15246491Y-9928936D02*
X15236968Y-9938460D01*
X15236968Y-9938460D02*
X15217920Y-9947984D01*
X15217920Y-9947984D02*
X15160777Y-9947984D01*
X15160777Y-9947984D02*
X15141729Y-9938460D01*
X15141729Y-9938460D02*
X15132206Y-9928936D01*
X15494110Y-9947984D02*
X15494110Y-9747984D01*
X15579825Y-9947984D02*
X15579825Y-9843222D01*
X15579825Y-9843222D02*
X15570301Y-9824174D01*
X15570301Y-9824174D02*
X15551253Y-9814650D01*
X15551253Y-9814650D02*
X15522682Y-9814650D01*
X15522682Y-9814650D02*
X15503634Y-9824174D01*
X15503634Y-9824174D02*
X15494110Y-9833698D01*
X15703634Y-9947984D02*
X15684587Y-9938460D01*
X15684587Y-9938460D02*
X15675063Y-9928936D01*
X15675063Y-9928936D02*
X15665539Y-9909889D01*
X15665539Y-9909889D02*
X15665539Y-9852746D01*
X15665539Y-9852746D02*
X15675063Y-9833698D01*
X15675063Y-9833698D02*
X15684587Y-9824174D01*
X15684587Y-9824174D02*
X15703634Y-9814650D01*
X15703634Y-9814650D02*
X15732206Y-9814650D01*
X15732206Y-9814650D02*
X15751253Y-9824174D01*
X15751253Y-9824174D02*
X15760777Y-9833698D01*
X15760777Y-9833698D02*
X15770301Y-9852746D01*
X15770301Y-9852746D02*
X15770301Y-9909889D01*
X15770301Y-9909889D02*
X15760777Y-9928936D01*
X15760777Y-9928936D02*
X15751253Y-9938460D01*
X15751253Y-9938460D02*
X15732206Y-9947984D01*
X15732206Y-9947984D02*
X15703634Y-9947984D01*
X15884587Y-9947984D02*
X15865539Y-9938460D01*
X15865539Y-9938460D02*
X15856015Y-9919412D01*
X15856015Y-9919412D02*
X15856015Y-9747984D01*
X16036968Y-9938460D02*
X16017920Y-9947984D01*
X16017920Y-9947984D02*
X15979825Y-9947984D01*
X15979825Y-9947984D02*
X15960777Y-9938460D01*
X15960777Y-9938460D02*
X15951253Y-9919412D01*
X15951253Y-9919412D02*
X15951253Y-9843222D01*
X15951253Y-9843222D02*
X15960777Y-9824174D01*
X15960777Y-9824174D02*
X15979825Y-9814650D01*
X15979825Y-9814650D02*
X16017920Y-9814650D01*
X16017920Y-9814650D02*
X16036968Y-9824174D01*
X16036968Y-9824174D02*
X16046491Y-9843222D01*
X16046491Y-9843222D02*
X16046491Y-9862270D01*
X16046491Y-9862270D02*
X15951253Y-9881317D01*
X16122682Y-9938460D02*
X16141730Y-9947984D01*
X16141730Y-9947984D02*
X16179825Y-9947984D01*
X16179825Y-9947984D02*
X16198872Y-9938460D01*
X16198872Y-9938460D02*
X16208396Y-9919412D01*
X16208396Y-9919412D02*
X16208396Y-9909889D01*
X16208396Y-9909889D02*
X16198872Y-9890841D01*
X16198872Y-9890841D02*
X16179825Y-9881317D01*
X16179825Y-9881317D02*
X16151253Y-9881317D01*
X16151253Y-9881317D02*
X16132206Y-9871793D01*
X16132206Y-9871793D02*
X16122682Y-9852746D01*
X16122682Y-9852746D02*
X16122682Y-9843222D01*
X16122682Y-9843222D02*
X16132206Y-9824174D01*
X16132206Y-9824174D02*
X16151253Y-9814650D01*
X16151253Y-9814650D02*
X16179825Y-9814650D01*
X16179825Y-9814650D02*
X16198872Y-9824174D01*
X16275063Y-10024174D02*
X16284587Y-10014650D01*
X16284587Y-10014650D02*
X16303634Y-9986079D01*
X16303634Y-9986079D02*
X16313158Y-9967031D01*
X16313158Y-9967031D02*
X16322682Y-9938460D01*
X16322682Y-9938460D02*
X16332206Y-9890841D01*
X16332206Y-9890841D02*
X16332206Y-9852746D01*
X16332206Y-9852746D02*
X16322682Y-9805127D01*
X16322682Y-9805127D02*
X16313158Y-9776555D01*
X16313158Y-9776555D02*
X16303634Y-9757508D01*
X16303634Y-9757508D02*
X16284587Y-9728936D01*
X16284587Y-9728936D02*
X16275063Y-9719412D01*
D13*
X11449000Y-10069500D02*
X11449000Y-10171500D01*
X11398000Y-10120500D02*
X11500000Y-10120500D01*
D11*
X11865539Y-10211984D02*
X11751253Y-10211984D01*
X11808396Y-10211984D02*
X11808396Y-10011984D01*
X11808396Y-10011984D02*
X11789348Y-10040555D01*
X11789348Y-10040555D02*
X11770301Y-10059603D01*
X11770301Y-10059603D02*
X11751253Y-10069127D01*
X11951253Y-10192936D02*
X11960777Y-10202460D01*
X11960777Y-10202460D02*
X11951253Y-10211984D01*
X11951253Y-10211984D02*
X11941729Y-10202460D01*
X11941729Y-10202460D02*
X11951253Y-10192936D01*
X11951253Y-10192936D02*
X11951253Y-10211984D01*
X12084586Y-10011984D02*
X12103634Y-10011984D01*
X12103634Y-10011984D02*
X12122682Y-10021508D01*
X12122682Y-10021508D02*
X12132205Y-10031031D01*
X12132205Y-10031031D02*
X12141729Y-10050079D01*
X12141729Y-10050079D02*
X12151253Y-10088174D01*
X12151253Y-10088174D02*
X12151253Y-10135793D01*
X12151253Y-10135793D02*
X12141729Y-10173889D01*
X12141729Y-10173889D02*
X12132205Y-10192936D01*
X12132205Y-10192936D02*
X12122682Y-10202460D01*
X12122682Y-10202460D02*
X12103634Y-10211984D01*
X12103634Y-10211984D02*
X12084586Y-10211984D01*
X12084586Y-10211984D02*
X12065539Y-10202460D01*
X12065539Y-10202460D02*
X12056015Y-10192936D01*
X12056015Y-10192936D02*
X12046491Y-10173889D01*
X12046491Y-10173889D02*
X12036967Y-10135793D01*
X12036967Y-10135793D02*
X12036967Y-10088174D01*
X12036967Y-10088174D02*
X12046491Y-10050079D01*
X12046491Y-10050079D02*
X12056015Y-10031031D01*
X12056015Y-10031031D02*
X12065539Y-10021508D01*
X12065539Y-10021508D02*
X12084586Y-10011984D01*
X12227443Y-10031031D02*
X12236967Y-10021508D01*
X12236967Y-10021508D02*
X12256015Y-10011984D01*
X12256015Y-10011984D02*
X12303634Y-10011984D01*
X12303634Y-10011984D02*
X12322682Y-10021508D01*
X12322682Y-10021508D02*
X12332205Y-10031031D01*
X12332205Y-10031031D02*
X12341729Y-10050079D01*
X12341729Y-10050079D02*
X12341729Y-10069127D01*
X12341729Y-10069127D02*
X12332205Y-10097698D01*
X12332205Y-10097698D02*
X12217920Y-10211984D01*
X12217920Y-10211984D02*
X12341729Y-10211984D01*
X12465539Y-10011984D02*
X12484586Y-10011984D01*
X12484586Y-10011984D02*
X12503634Y-10021508D01*
X12503634Y-10021508D02*
X12513158Y-10031031D01*
X12513158Y-10031031D02*
X12522682Y-10050079D01*
X12522682Y-10050079D02*
X12532205Y-10088174D01*
X12532205Y-10088174D02*
X12532205Y-10135793D01*
X12532205Y-10135793D02*
X12522682Y-10173889D01*
X12522682Y-10173889D02*
X12513158Y-10192936D01*
X12513158Y-10192936D02*
X12503634Y-10202460D01*
X12503634Y-10202460D02*
X12484586Y-10211984D01*
X12484586Y-10211984D02*
X12465539Y-10211984D01*
X12465539Y-10211984D02*
X12446491Y-10202460D01*
X12446491Y-10202460D02*
X12436967Y-10192936D01*
X12436967Y-10192936D02*
X12427443Y-10173889D01*
X12427443Y-10173889D02*
X12417920Y-10135793D01*
X12417920Y-10135793D02*
X12417920Y-10088174D01*
X12417920Y-10088174D02*
X12427443Y-10050079D01*
X12427443Y-10050079D02*
X12436967Y-10031031D01*
X12436967Y-10031031D02*
X12446491Y-10021508D01*
X12446491Y-10021508D02*
X12465539Y-10011984D01*
X12617920Y-10211984D02*
X12617920Y-10078650D01*
X12617920Y-10097698D02*
X12627443Y-10088174D01*
X12627443Y-10088174D02*
X12646491Y-10078650D01*
X12646491Y-10078650D02*
X12675063Y-10078650D01*
X12675063Y-10078650D02*
X12694110Y-10088174D01*
X12694110Y-10088174D02*
X12703634Y-10107222D01*
X12703634Y-10107222D02*
X12703634Y-10211984D01*
X12703634Y-10107222D02*
X12713158Y-10088174D01*
X12713158Y-10088174D02*
X12732205Y-10078650D01*
X12732205Y-10078650D02*
X12760777Y-10078650D01*
X12760777Y-10078650D02*
X12779824Y-10088174D01*
X12779824Y-10088174D02*
X12789348Y-10107222D01*
X12789348Y-10107222D02*
X12789348Y-10211984D01*
X12884586Y-10211984D02*
X12884586Y-10078650D01*
X12884586Y-10097698D02*
X12894110Y-10088174D01*
X12894110Y-10088174D02*
X12913158Y-10078650D01*
X12913158Y-10078650D02*
X12941729Y-10078650D01*
X12941729Y-10078650D02*
X12960777Y-10088174D01*
X12960777Y-10088174D02*
X12970301Y-10107222D01*
X12970301Y-10107222D02*
X12970301Y-10211984D01*
X12970301Y-10107222D02*
X12979824Y-10088174D01*
X12979824Y-10088174D02*
X12998872Y-10078650D01*
X12998872Y-10078650D02*
X13027443Y-10078650D01*
X13027443Y-10078650D02*
X13046491Y-10088174D01*
X13046491Y-10088174D02*
X13056015Y-10107222D01*
X13056015Y-10107222D02*
X13056015Y-10211984D01*
X13446491Y-10002460D02*
X13275063Y-10259603D01*
X13703634Y-10011984D02*
X13722682Y-10011984D01*
X13722682Y-10011984D02*
X13741729Y-10021508D01*
X13741729Y-10021508D02*
X13751253Y-10031031D01*
X13751253Y-10031031D02*
X13760777Y-10050079D01*
X13760777Y-10050079D02*
X13770301Y-10088174D01*
X13770301Y-10088174D02*
X13770301Y-10135793D01*
X13770301Y-10135793D02*
X13760777Y-10173889D01*
X13760777Y-10173889D02*
X13751253Y-10192936D01*
X13751253Y-10192936D02*
X13741729Y-10202460D01*
X13741729Y-10202460D02*
X13722682Y-10211984D01*
X13722682Y-10211984D02*
X13703634Y-10211984D01*
X13703634Y-10211984D02*
X13684586Y-10202460D01*
X13684586Y-10202460D02*
X13675063Y-10192936D01*
X13675063Y-10192936D02*
X13665539Y-10173889D01*
X13665539Y-10173889D02*
X13656015Y-10135793D01*
X13656015Y-10135793D02*
X13656015Y-10088174D01*
X13656015Y-10088174D02*
X13665539Y-10050079D01*
X13665539Y-10050079D02*
X13675063Y-10031031D01*
X13675063Y-10031031D02*
X13684586Y-10021508D01*
X13684586Y-10021508D02*
X13703634Y-10011984D01*
X13856015Y-10192936D02*
X13865539Y-10202460D01*
X13865539Y-10202460D02*
X13856015Y-10211984D01*
X13856015Y-10211984D02*
X13846491Y-10202460D01*
X13846491Y-10202460D02*
X13856015Y-10192936D01*
X13856015Y-10192936D02*
X13856015Y-10211984D01*
X13989348Y-10011984D02*
X14008396Y-10011984D01*
X14008396Y-10011984D02*
X14027444Y-10021508D01*
X14027444Y-10021508D02*
X14036967Y-10031031D01*
X14036967Y-10031031D02*
X14046491Y-10050079D01*
X14046491Y-10050079D02*
X14056015Y-10088174D01*
X14056015Y-10088174D02*
X14056015Y-10135793D01*
X14056015Y-10135793D02*
X14046491Y-10173889D01*
X14046491Y-10173889D02*
X14036967Y-10192936D01*
X14036967Y-10192936D02*
X14027444Y-10202460D01*
X14027444Y-10202460D02*
X14008396Y-10211984D01*
X14008396Y-10211984D02*
X13989348Y-10211984D01*
X13989348Y-10211984D02*
X13970301Y-10202460D01*
X13970301Y-10202460D02*
X13960777Y-10192936D01*
X13960777Y-10192936D02*
X13951253Y-10173889D01*
X13951253Y-10173889D02*
X13941729Y-10135793D01*
X13941729Y-10135793D02*
X13941729Y-10088174D01*
X13941729Y-10088174D02*
X13951253Y-10050079D01*
X13951253Y-10050079D02*
X13960777Y-10031031D01*
X13960777Y-10031031D02*
X13970301Y-10021508D01*
X13970301Y-10021508D02*
X13989348Y-10011984D01*
X14227444Y-10078650D02*
X14227444Y-10211984D01*
X14179825Y-10002460D02*
X14132206Y-10145317D01*
X14132206Y-10145317D02*
X14256015Y-10145317D01*
X14370301Y-10011984D02*
X14389348Y-10011984D01*
X14389348Y-10011984D02*
X14408396Y-10021508D01*
X14408396Y-10021508D02*
X14417920Y-10031031D01*
X14417920Y-10031031D02*
X14427444Y-10050079D01*
X14427444Y-10050079D02*
X14436967Y-10088174D01*
X14436967Y-10088174D02*
X14436967Y-10135793D01*
X14436967Y-10135793D02*
X14427444Y-10173889D01*
X14427444Y-10173889D02*
X14417920Y-10192936D01*
X14417920Y-10192936D02*
X14408396Y-10202460D01*
X14408396Y-10202460D02*
X14389348Y-10211984D01*
X14389348Y-10211984D02*
X14370301Y-10211984D01*
X14370301Y-10211984D02*
X14351253Y-10202460D01*
X14351253Y-10202460D02*
X14341729Y-10192936D01*
X14341729Y-10192936D02*
X14332206Y-10173889D01*
X14332206Y-10173889D02*
X14322682Y-10135793D01*
X14322682Y-10135793D02*
X14322682Y-10088174D01*
X14322682Y-10088174D02*
X14332206Y-10050079D01*
X14332206Y-10050079D02*
X14341729Y-10031031D01*
X14341729Y-10031031D02*
X14351253Y-10021508D01*
X14351253Y-10021508D02*
X14370301Y-10011984D01*
X14513158Y-10031031D02*
X14522682Y-10021508D01*
X14522682Y-10021508D02*
X14541729Y-10011984D01*
X14541729Y-10011984D02*
X14589348Y-10011984D01*
X14589348Y-10011984D02*
X14608396Y-10021508D01*
X14608396Y-10021508D02*
X14617920Y-10031031D01*
X14617920Y-10031031D02*
X14627444Y-10050079D01*
X14627444Y-10050079D02*
X14627444Y-10069127D01*
X14627444Y-10069127D02*
X14617920Y-10097698D01*
X14617920Y-10097698D02*
X14503634Y-10211984D01*
X14503634Y-10211984D02*
X14627444Y-10211984D01*
X14703634Y-10011984D02*
X14703634Y-10050079D01*
X14779825Y-10011984D02*
X14779825Y-10050079D01*
X15075063Y-10288174D02*
X15065539Y-10278650D01*
X15065539Y-10278650D02*
X15046491Y-10250079D01*
X15046491Y-10250079D02*
X15036968Y-10231031D01*
X15036968Y-10231031D02*
X15027444Y-10202460D01*
X15027444Y-10202460D02*
X15017920Y-10154841D01*
X15017920Y-10154841D02*
X15017920Y-10116746D01*
X15017920Y-10116746D02*
X15027444Y-10069127D01*
X15027444Y-10069127D02*
X15036968Y-10040555D01*
X15036968Y-10040555D02*
X15046491Y-10021508D01*
X15046491Y-10021508D02*
X15065539Y-9992936D01*
X15065539Y-9992936D02*
X15075063Y-9983412D01*
X15132206Y-10011984D02*
X15256015Y-10011984D01*
X15256015Y-10011984D02*
X15189348Y-10088174D01*
X15189348Y-10088174D02*
X15217920Y-10088174D01*
X15217920Y-10088174D02*
X15236968Y-10097698D01*
X15236968Y-10097698D02*
X15246491Y-10107222D01*
X15246491Y-10107222D02*
X15256015Y-10126270D01*
X15256015Y-10126270D02*
X15256015Y-10173889D01*
X15256015Y-10173889D02*
X15246491Y-10192936D01*
X15246491Y-10192936D02*
X15236968Y-10202460D01*
X15236968Y-10202460D02*
X15217920Y-10211984D01*
X15217920Y-10211984D02*
X15160777Y-10211984D01*
X15160777Y-10211984D02*
X15141729Y-10202460D01*
X15141729Y-10202460D02*
X15132206Y-10192936D01*
X15494110Y-10211984D02*
X15494110Y-10011984D01*
X15579825Y-10211984D02*
X15579825Y-10107222D01*
X15579825Y-10107222D02*
X15570301Y-10088174D01*
X15570301Y-10088174D02*
X15551253Y-10078650D01*
X15551253Y-10078650D02*
X15522682Y-10078650D01*
X15522682Y-10078650D02*
X15503634Y-10088174D01*
X15503634Y-10088174D02*
X15494110Y-10097698D01*
X15703634Y-10211984D02*
X15684587Y-10202460D01*
X15684587Y-10202460D02*
X15675063Y-10192936D01*
X15675063Y-10192936D02*
X15665539Y-10173889D01*
X15665539Y-10173889D02*
X15665539Y-10116746D01*
X15665539Y-10116746D02*
X15675063Y-10097698D01*
X15675063Y-10097698D02*
X15684587Y-10088174D01*
X15684587Y-10088174D02*
X15703634Y-10078650D01*
X15703634Y-10078650D02*
X15732206Y-10078650D01*
X15732206Y-10078650D02*
X15751253Y-10088174D01*
X15751253Y-10088174D02*
X15760777Y-10097698D01*
X15760777Y-10097698D02*
X15770301Y-10116746D01*
X15770301Y-10116746D02*
X15770301Y-10173889D01*
X15770301Y-10173889D02*
X15760777Y-10192936D01*
X15760777Y-10192936D02*
X15751253Y-10202460D01*
X15751253Y-10202460D02*
X15732206Y-10211984D01*
X15732206Y-10211984D02*
X15703634Y-10211984D01*
X15884587Y-10211984D02*
X15865539Y-10202460D01*
X15865539Y-10202460D02*
X15856015Y-10183412D01*
X15856015Y-10183412D02*
X15856015Y-10011984D01*
X16036968Y-10202460D02*
X16017920Y-10211984D01*
X16017920Y-10211984D02*
X15979825Y-10211984D01*
X15979825Y-10211984D02*
X15960777Y-10202460D01*
X15960777Y-10202460D02*
X15951253Y-10183412D01*
X15951253Y-10183412D02*
X15951253Y-10107222D01*
X15951253Y-10107222D02*
X15960777Y-10088174D01*
X15960777Y-10088174D02*
X15979825Y-10078650D01*
X15979825Y-10078650D02*
X16017920Y-10078650D01*
X16017920Y-10078650D02*
X16036968Y-10088174D01*
X16036968Y-10088174D02*
X16046491Y-10107222D01*
X16046491Y-10107222D02*
X16046491Y-10126270D01*
X16046491Y-10126270D02*
X15951253Y-10145317D01*
X16122682Y-10202460D02*
X16141730Y-10211984D01*
X16141730Y-10211984D02*
X16179825Y-10211984D01*
X16179825Y-10211984D02*
X16198872Y-10202460D01*
X16198872Y-10202460D02*
X16208396Y-10183412D01*
X16208396Y-10183412D02*
X16208396Y-10173889D01*
X16208396Y-10173889D02*
X16198872Y-10154841D01*
X16198872Y-10154841D02*
X16179825Y-10145317D01*
X16179825Y-10145317D02*
X16151253Y-10145317D01*
X16151253Y-10145317D02*
X16132206Y-10135793D01*
X16132206Y-10135793D02*
X16122682Y-10116746D01*
X16122682Y-10116746D02*
X16122682Y-10107222D01*
X16122682Y-10107222D02*
X16132206Y-10088174D01*
X16132206Y-10088174D02*
X16151253Y-10078650D01*
X16151253Y-10078650D02*
X16179825Y-10078650D01*
X16179825Y-10078650D02*
X16198872Y-10088174D01*
X16275063Y-10288174D02*
X16284587Y-10278650D01*
X16284587Y-10278650D02*
X16303634Y-10250079D01*
X16303634Y-10250079D02*
X16313158Y-10231031D01*
X16313158Y-10231031D02*
X16322682Y-10202460D01*
X16322682Y-10202460D02*
X16332206Y-10154841D01*
X16332206Y-10154841D02*
X16332206Y-10116746D01*
X16332206Y-10116746D02*
X16322682Y-10069127D01*
X16322682Y-10069127D02*
X16313158Y-10040555D01*
X16313158Y-10040555D02*
X16303634Y-10021508D01*
X16303634Y-10021508D02*
X16284587Y-9992936D01*
X16284587Y-9992936D02*
X16275063Y-9983412D01*
M02*
