%TF.GenerationSoftware,KiCad,Pcbnew,8.0.6*%
%TF.CreationDate,2024-10-26T20:07:44-05:00*%
%TF.ProjectId,FanPWMtoRotorLock,46616e50-574d-4746-9f52-6f746f724c6f,rev?*%
%TF.SameCoordinates,Original*%
%TF.FileFunction,Drillmap*%
%TF.FilePolarity,Positive*%
%FSLAX45Y45*%
G04 Gerber Fmt 4.5, Leading zero omitted, Abs format (unit mm)*
G04 Created by KiCad (PCBNEW 8.0.6) date 2024-10-26 20:07:44*
%MOMM*%
%LPD*%
G01*
G04 APERTURE LIST*
%ADD10C,0.050000*%
%ADD11C,0.200000*%
G04 APERTURE END LIST*
D10*
X11502500Y-7745000D02*
X13272500Y-7745000D01*
X13272500Y-8950000D01*
X11502500Y-8950000D01*
X11502500Y-7745000D01*
D11*
X11760777Y-9263984D02*
X11760777Y-9063984D01*
X11760777Y-9063984D02*
X11808396Y-9063984D01*
X11808396Y-9063984D02*
X11836967Y-9073508D01*
X11836967Y-9073508D02*
X11856015Y-9092555D01*
X11856015Y-9092555D02*
X11865539Y-9111603D01*
X11865539Y-9111603D02*
X11875062Y-9149698D01*
X11875062Y-9149698D02*
X11875062Y-9178270D01*
X11875062Y-9178270D02*
X11865539Y-9216365D01*
X11865539Y-9216365D02*
X11856015Y-9235412D01*
X11856015Y-9235412D02*
X11836967Y-9254460D01*
X11836967Y-9254460D02*
X11808396Y-9263984D01*
X11808396Y-9263984D02*
X11760777Y-9263984D01*
X11960777Y-9263984D02*
X11960777Y-9130650D01*
X11960777Y-9168746D02*
X11970301Y-9149698D01*
X11970301Y-9149698D02*
X11979824Y-9140174D01*
X11979824Y-9140174D02*
X11998872Y-9130650D01*
X11998872Y-9130650D02*
X12017920Y-9130650D01*
X12084586Y-9263984D02*
X12084586Y-9130650D01*
X12084586Y-9063984D02*
X12075062Y-9073508D01*
X12075062Y-9073508D02*
X12084586Y-9083031D01*
X12084586Y-9083031D02*
X12094110Y-9073508D01*
X12094110Y-9073508D02*
X12084586Y-9063984D01*
X12084586Y-9063984D02*
X12084586Y-9083031D01*
X12208396Y-9263984D02*
X12189348Y-9254460D01*
X12189348Y-9254460D02*
X12179824Y-9235412D01*
X12179824Y-9235412D02*
X12179824Y-9063984D01*
X12313158Y-9263984D02*
X12294110Y-9254460D01*
X12294110Y-9254460D02*
X12284586Y-9235412D01*
X12284586Y-9235412D02*
X12284586Y-9063984D01*
X12541729Y-9263984D02*
X12541729Y-9063984D01*
X12541729Y-9063984D02*
X12608396Y-9206841D01*
X12608396Y-9206841D02*
X12675062Y-9063984D01*
X12675062Y-9063984D02*
X12675062Y-9263984D01*
X12856015Y-9263984D02*
X12856015Y-9159222D01*
X12856015Y-9159222D02*
X12846491Y-9140174D01*
X12846491Y-9140174D02*
X12827443Y-9130650D01*
X12827443Y-9130650D02*
X12789348Y-9130650D01*
X12789348Y-9130650D02*
X12770301Y-9140174D01*
X12856015Y-9254460D02*
X12836967Y-9263984D01*
X12836967Y-9263984D02*
X12789348Y-9263984D01*
X12789348Y-9263984D02*
X12770301Y-9254460D01*
X12770301Y-9254460D02*
X12760777Y-9235412D01*
X12760777Y-9235412D02*
X12760777Y-9216365D01*
X12760777Y-9216365D02*
X12770301Y-9197317D01*
X12770301Y-9197317D02*
X12789348Y-9187793D01*
X12789348Y-9187793D02*
X12836967Y-9187793D01*
X12836967Y-9187793D02*
X12856015Y-9178270D01*
X12951253Y-9130650D02*
X12951253Y-9330650D01*
X12951253Y-9140174D02*
X12970301Y-9130650D01*
X12970301Y-9130650D02*
X13008396Y-9130650D01*
X13008396Y-9130650D02*
X13027443Y-9140174D01*
X13027443Y-9140174D02*
X13036967Y-9149698D01*
X13036967Y-9149698D02*
X13046491Y-9168746D01*
X13046491Y-9168746D02*
X13046491Y-9225889D01*
X13046491Y-9225889D02*
X13036967Y-9244936D01*
X13036967Y-9244936D02*
X13027443Y-9254460D01*
X13027443Y-9254460D02*
X13008396Y-9263984D01*
X13008396Y-9263984D02*
X12970301Y-9263984D01*
X12970301Y-9263984D02*
X12951253Y-9254460D01*
X13132205Y-9244936D02*
X13141729Y-9254460D01*
X13141729Y-9254460D02*
X13132205Y-9263984D01*
X13132205Y-9263984D02*
X13122682Y-9254460D01*
X13122682Y-9254460D02*
X13132205Y-9244936D01*
X13132205Y-9244936D02*
X13132205Y-9263984D01*
X13132205Y-9140174D02*
X13141729Y-9149698D01*
X13141729Y-9149698D02*
X13132205Y-9159222D01*
X13132205Y-9159222D02*
X13122682Y-9149698D01*
X13122682Y-9149698D02*
X13132205Y-9140174D01*
X13132205Y-9140174D02*
X13132205Y-9159222D01*
M02*
